<svg width="159" height="18" viewBox="0 0 159 18" fill="none" xmlns="http://www.w3.org/2000/svg">
<path d="M4.4991 14.224C3.64977 14.224 2.85177 14.1353 2.1051 13.958C1.35843 13.7713 0.742435 13.5287 0.257102 13.23L1.5311 10.794C2.58577 11.4007 3.6871 11.704 4.8351 11.704C5.2551 11.704 5.5771 11.6527 5.8011 11.55C6.0251 11.4473 6.1371 11.3073 6.1371 11.13C6.1371 10.962 6.02044 10.8267 5.7871 10.724C5.5631 10.6213 5.20377 10.5093 4.7091 10.388C4.05577 10.22 3.51444 10.052 3.0851 9.884C2.65577 9.70667 2.27777 9.44067 1.9511 9.086C1.63377 8.722 1.4751 8.246 1.4751 7.658C1.4751 6.92067 1.6711 6.27667 2.0631 5.726C2.46443 5.166 3.03844 4.73667 3.7851 4.438C4.53177 4.13 5.41377 3.976 6.4311 3.976C7.1591 3.976 7.83577 4.05067 8.4611 4.2C9.09577 4.34 9.64177 4.54533 10.0991 4.816L8.9091 7.224C8.52644 6.98133 8.10177 6.79933 7.6351 6.678C7.17777 6.55667 6.70644 6.496 6.2211 6.496C5.76377 6.496 5.4091 6.56133 5.1571 6.692C4.9051 6.82267 4.7791 6.97667 4.7791 7.154C4.7791 7.33133 4.8911 7.47133 5.1151 7.574C5.34843 7.67667 5.72644 7.78867 6.2491 7.91C6.88377 8.05933 7.41577 8.218 7.8451 8.386C8.28377 8.554 8.66177 8.81533 8.9791 9.17C9.29644 9.52467 9.4551 9.99133 9.4551 10.57C9.4551 11.298 9.25444 11.9373 8.8531 12.488C8.45177 13.0387 7.87777 13.468 7.1311 13.776C6.38444 14.0747 5.5071 14.224 4.4991 14.224ZM14.7503 14.224C13.8729 14.224 13.1123 14.0793 12.4683 13.79C11.8336 13.4913 11.3436 13.0713 10.9983 12.53C10.6623 11.9887 10.4943 11.354 10.4943 10.626C10.4943 10.3273 10.5316 9.982 10.6063 9.59L11.6843 4.2H14.9883L13.9243 9.534C13.8683 9.79533 13.8403 10.0333 13.8403 10.248C13.8403 10.6867 13.9523 11.0133 14.1763 11.228C14.4003 11.4427 14.7269 11.55 15.1563 11.55C15.6416 11.55 16.0196 11.396 16.2903 11.088C16.5609 10.78 16.7709 10.262 16.9203 9.534L17.9843 4.2H21.2323L20.1263 9.73C19.8276 11.214 19.2303 12.334 18.3343 13.09C17.4383 13.846 16.2436 14.224 14.7503 14.224ZM27.7217 12.292H23.9837L23.0037 14H19.5177L25.7617 4.2H29.0097L31.3337 14H28.0437L27.7217 12.292ZM27.2597 9.912L26.7837 7.406L25.3417 9.912H27.2597ZM41.6303 14.224C40.6316 14.224 39.7496 14.042 38.9843 13.678C38.2283 13.3047 37.6403 12.7867 37.2203 12.124C36.8096 11.4613 36.6043 10.7007 36.6043 9.842C36.6043 8.70333 36.8656 7.69067 37.3883 6.804C37.9203 5.91733 38.6529 5.22667 39.5863 4.732C40.5289 4.228 41.5976 3.976 42.7923 3.976C43.7349 3.976 44.5703 4.14867 45.2983 4.494C46.0263 4.83 46.5676 5.31067 46.9223 5.936L44.5423 7.798C44.1036 7.03267 43.4503 6.65 42.5823 6.65C42.0689 6.65 41.6116 6.776 41.2103 7.028C40.8089 7.28 40.4963 7.63467 40.2723 8.092C40.0483 8.54 39.9363 9.05333 39.9363 9.632C39.9363 10.2107 40.1183 10.6773 40.4823 11.032C40.8556 11.3773 41.3456 11.55 41.9523 11.55C42.7829 11.55 43.5109 11.172 44.1363 10.416L46.0823 12.278C45.5129 12.978 44.8643 13.4773 44.1363 13.776C43.4176 14.0747 42.5823 14.224 41.6303 14.224ZM48.4362 4.2H51.7402L50.2982 11.438H54.7222L54.2042 14H46.4762L48.4362 4.2ZM62.3936 12.292H58.6556L57.6756 14H54.1896L60.4336 4.2H63.6816L66.0056 14H62.7156L62.3936 12.292ZM61.9316 9.912L61.4556 7.406L60.0136 9.912H61.9316ZM70.4249 14.224C69.5755 14.224 68.7775 14.1353 68.0309 13.958C67.2842 13.7713 66.6682 13.5287 66.1829 13.23L67.4569 10.794C68.5115 11.4007 69.6129 11.704 70.7609 11.704C71.1809 11.704 71.5029 11.6527 71.7269 11.55C71.9509 11.4473 72.0629 11.3073 72.0629 11.13C72.0629 10.962 71.9462 10.8267 71.7129 10.724C71.4889 10.6213 71.1295 10.5093 70.6349 10.388C69.9815 10.22 69.4402 10.052 69.0109 9.884C68.5815 9.70667 68.2035 9.44067 67.8769 9.086C67.5595 8.722 67.4009 8.246 67.4009 7.658C67.4009 6.92067 67.5969 6.27667 67.9889 5.726C68.3902 5.166 68.9642 4.73667 69.7109 4.438C70.4575 4.13 71.3395 3.976 72.3569 3.976C73.0849 3.976 73.7615 4.05067 74.3869 4.2C75.0215 4.34 75.5675 4.54533 76.0249 4.816L74.8349 7.224C74.4522 6.98133 74.0275 6.79933 73.5609 6.678C73.1035 6.55667 72.6322 6.496 72.1469 6.496C71.6895 6.496 71.3349 6.56133 71.0829 6.692C70.8309 6.82267 70.7049 6.97667 70.7049 7.154C70.7049 7.33133 70.8169 7.47133 71.0409 7.574C71.2742 7.67667 71.6522 7.78867 72.1749 7.91C72.8095 8.05933 73.3415 8.218 73.7709 8.386C74.2096 8.554 74.5876 8.81533 74.9049 9.17C75.2222 9.52467 75.3809 9.99133 75.3809 10.57C75.3809 11.298 75.1802 11.9373 74.7789 12.488C74.3775 13.0387 73.8035 13.468 73.0569 13.776C72.3102 14.0747 71.4329 14.224 70.4249 14.224ZM79.6261 14.224C78.7767 14.224 77.9787 14.1353 77.2321 13.958C76.4854 13.7713 75.8694 13.5287 75.3841 13.23L76.6581 10.794C77.7127 11.4007 78.8141 11.704 79.9621 11.704C80.3821 11.704 80.7041 11.6527 80.9281 11.55C81.1521 11.4473 81.2641 11.3073 81.2641 11.13C81.2641 10.962 81.1474 10.8267 80.9141 10.724C80.6901 10.6213 80.3307 10.5093 79.8361 10.388C79.1827 10.22 78.6414 10.052 78.2121 9.884C77.7827 9.70667 77.4047 9.44067 77.0781 9.086C76.7607 8.722 76.6021 8.246 76.6021 7.658C76.6021 6.92067 76.7981 6.27667 77.1901 5.726C77.5914 5.166 78.1654 4.73667 78.9121 4.438C79.6587 4.13 80.5407 3.976 81.5581 3.976C82.2861 3.976 82.9627 4.05067 83.5881 4.2C84.2227 4.34 84.7687 4.54533 85.2261 4.816L84.0361 7.224C83.6534 6.98133 83.2287 6.79933 82.7621 6.678C82.3047 6.55667 81.8334 6.496 81.3481 6.496C80.8907 6.496 80.5361 6.56133 80.2841 6.692C80.0321 6.82267 79.9061 6.97667 79.9061 7.154C79.9061 7.33133 80.0181 7.47133 80.2421 7.574C80.4754 7.67667 80.8534 7.78867 81.3761 7.91C82.0107 8.05933 82.5427 8.218 82.9721 8.386C83.4107 8.554 83.7887 8.81533 84.1061 9.17C84.4234 9.52467 84.5821 9.99133 84.5821 10.57C84.5821 11.298 84.3814 11.9373 83.9801 12.488C83.5787 13.0387 83.0047 13.468 82.2581 13.776C81.5114 14.0747 80.6341 14.224 79.6261 14.224ZM86.8952 4.2H90.1992L88.2392 14H84.9352L86.8952 4.2ZM94.5898 6.692L94.2538 8.372H98.3418L97.8378 10.864H93.7638L93.1338 14H89.8298L91.7898 4.2H99.7558L99.2518 6.692H94.5898ZM100.8 4.2H104.104L102.144 14H98.8395L100.8 4.2ZM109.306 14.224C108.307 14.224 107.425 14.042 106.66 13.678C105.904 13.3047 105.316 12.7867 104.896 12.124C104.485 11.4613 104.28 10.7007 104.28 9.842C104.28 8.70333 104.541 7.69067 105.064 6.804C105.596 5.91733 106.329 5.22667 107.262 4.732C108.205 4.228 109.273 3.976 110.468 3.976C111.411 3.976 112.246 4.14867 112.974 4.494C113.702 4.83 114.243 5.31067 114.598 5.936L112.218 7.798C111.779 7.03267 111.126 6.65 110.258 6.65C109.745 6.65 109.287 6.776 108.886 7.028C108.485 7.28 108.172 7.63467 107.948 8.092C107.724 8.54 107.612 9.05333 107.612 9.632C107.612 10.2107 107.794 10.6773 108.158 11.032C108.531 11.3773 109.021 11.55 109.628 11.55C110.459 11.55 111.187 11.172 111.812 10.416L113.758 12.278C113.189 12.978 112.54 13.4773 111.812 13.776C111.093 14.0747 110.258 14.224 109.306 14.224ZM121.155 12.292H117.417L116.437 14H112.951L119.195 4.2H122.443L124.767 14H121.477L121.155 12.292ZM120.693 9.912L120.217 7.406L118.775 9.912H120.693ZM130.73 14.224C129.731 14.224 128.849 14.042 128.084 13.678C127.328 13.3047 126.74 12.7867 126.32 12.124C125.909 11.4613 125.704 10.7007 125.704 9.842C125.704 8.70333 125.965 7.69067 126.488 6.804C127.02 5.91733 127.753 5.22667 128.686 4.732C129.629 4.228 130.697 3.976 131.892 3.976C132.835 3.976 133.67 4.14867 134.398 4.494C135.126 4.83 135.667 5.31067 136.022 5.936L133.642 7.798C133.203 7.03267 132.55 6.65 131.682 6.65C131.169 6.65 130.711 6.776 130.31 7.028C129.909 7.28 129.596 7.63467 129.372 8.092C129.148 8.54 129.036 9.05333 129.036 9.632C129.036 10.2107 129.218 10.6773 129.582 11.032C129.955 11.3773 130.445 11.55 131.052 11.55C131.883 11.55 132.611 11.172 133.236 10.416L135.182 12.278C134.613 12.978 133.964 13.4773 133.236 13.776C132.517 14.0747 131.682 14.224 130.73 14.224ZM128.882 17.36C128.611 17.36 128.345 17.332 128.084 17.276C127.823 17.22 127.603 17.15 127.426 17.066L128.056 15.904C128.317 16.016 128.611 16.072 128.938 16.072C129.162 16.072 129.325 16.0393 129.428 15.974C129.54 15.9087 129.596 15.82 129.596 15.708C129.596 15.54 129.437 15.456 129.12 15.456H128.504L129.204 13.86H130.828L130.464 14.728C130.791 14.784 131.033 14.9007 131.192 15.078C131.36 15.2553 131.444 15.4653 131.444 15.708C131.444 15.7547 131.435 15.8247 131.416 15.918C131.323 16.366 131.052 16.716 130.604 16.968C130.156 17.2293 129.582 17.36 128.882 17.36ZM142.579 12.292H138.841L137.861 14H134.375L140.619 4.2H143.867L146.191 14H142.901L142.579 12.292ZM142.117 9.912L141.641 7.406L140.199 9.912H142.117ZM143.643 3.542C143.363 3.542 143.12 3.5 142.915 3.416C142.719 3.32267 142.504 3.192 142.271 3.024C142.103 2.912 141.972 2.83267 141.879 2.786C141.795 2.73933 141.702 2.716 141.599 2.716C141.422 2.716 141.268 2.77667 141.137 2.898C141.016 3.01933 140.932 3.18733 140.885 3.402H139.387C139.518 2.618 139.774 2.02067 140.157 1.61C140.54 1.19 141.02 0.979999 141.599 0.979999C141.879 0.979999 142.117 1.02667 142.313 1.12C142.518 1.204 142.742 1.33 142.985 1.498C143.134 1.60067 143.256 1.68 143.349 1.736C143.452 1.78267 143.554 1.806 143.657 1.806C143.834 1.806 143.984 1.75 144.105 1.638C144.226 1.51667 144.31 1.358 144.357 1.162H145.855C145.734 1.92733 145.477 2.51533 145.085 2.926C144.702 3.33667 144.222 3.542 143.643 3.542ZM152.098 14.224C151.099 14.224 150.222 14.042 149.466 13.678C148.719 13.3047 148.14 12.7867 147.73 12.124C147.328 11.4613 147.128 10.7007 147.128 9.842C147.128 8.70333 147.389 7.69067 147.912 6.804C148.444 5.908 149.176 5.21267 150.11 4.718C151.052 4.22333 152.116 3.976 153.302 3.976C154.3 3.976 155.173 4.16267 155.92 4.536C156.676 4.9 157.254 5.41333 157.656 6.076C158.066 6.73867 158.272 7.49933 158.272 8.358C158.272 9.49667 158.006 10.514 157.474 11.41C156.951 12.2967 156.218 12.9873 155.276 13.482C154.342 13.9767 153.283 14.224 152.098 14.224ZM152.378 11.55C152.9 11.55 153.353 11.4147 153.736 11.144C154.128 10.8733 154.426 10.5093 154.632 10.052C154.837 9.59467 154.94 9.09533 154.94 8.554C154.94 7.97533 154.767 7.51333 154.422 7.168C154.086 6.82267 153.619 6.65 153.022 6.65C152.499 6.65 152.042 6.78533 151.65 7.056C151.267 7.32667 150.973 7.69067 150.768 8.148C150.562 8.60533 150.46 9.10467 150.46 9.646C150.46 10.2247 150.628 10.6867 150.964 11.032C151.309 11.3773 151.78 11.55 152.378 11.55Z" fill="#066167"/>
</svg>
