<svg width="75" height="16" viewBox="0 0 75 16" fill="none" xmlns="http://www.w3.org/2000/svg">
<rect width="75" height="16" rx="7" fill="#E6C509"/>
<path d="M57 8C57 9.10156 56.1016 10 55 10C53.8984 10 53 9.10156 53 8C53 6.89844 53.8984 6 55 6C56.1016 6 57 6.89844 57 8ZM61 7.14844C61 7.01562 60.9063 6.89062 60.7734 6.86719L59.3438 6.64844C59.2656 6.39062 59.1563 6.13281 59.0234 5.88281C59.2891 5.51562 59.5781 5.17187 59.8438 4.8125C59.8828 4.75781 59.9063 4.70312 59.9063 4.63281C59.9063 4.57031 59.8906 4.50781 59.8516 4.46094C59.5234 4 58.9766 3.51562 58.5625 3.13281C58.5078 3.08594 58.4375 3.05469 58.3672 3.05469C58.2969 3.05469 58.2266 3.07812 58.1797 3.125L57.0703 3.96094C56.8438 3.84375 56.6094 3.75 56.3672 3.67187L56.1484 2.23437C56.1328 2.10156 56.0078 2 55.8672 2H54.1328C53.9922 2 53.8828 2.09375 53.8516 2.21875C53.7266 2.6875 53.6797 3.19531 53.625 3.67187C53.3828 3.75 53.1406 3.85156 52.9141 3.96875L51.8359 3.13281C51.7734 3.08594 51.7031 3.05469 51.6328 3.05469C51.3672 3.05469 50.3125 4.19531 50.125 4.45312C50.0859 4.50781 50.0547 4.5625 50.0547 4.63281C50.0547 4.70312 50.0859 4.76562 50.1328 4.82031C50.4219 5.17187 50.7031 5.52344 50.9688 5.89844C50.8438 6.13281 50.7422 6.36719 50.6641 6.61719L49.2109 6.83594C49.0938 6.85937 49 7 49 7.11719V8.85156C49 8.98437 49.0938 9.10937 49.2266 9.13281L50.6563 9.34375C50.7344 9.60937 50.8438 9.86719 50.9766 10.1172C50.7109 10.4844 50.4219 10.8281 50.1563 11.1875C50.1172 11.2422 50.0938 11.2969 50.0938 11.3672C50.0938 11.4297 50.1094 11.4922 50.1484 11.5469C50.4766 12 51.0234 12.4844 51.4375 12.8594C51.4922 12.9141 51.5625 12.9453 51.6328 12.9453C51.7031 12.9453 51.7734 12.9219 51.8281 12.875L52.9297 12.0391C53.1562 12.1562 53.3906 12.25 53.6328 12.3281L53.8516 13.7656C53.8672 13.8984 53.9922 14 54.1328 14H55.8672C56.0078 14 56.1172 13.9063 56.1484 13.7813C56.2734 13.3125 56.3203 12.8047 56.375 12.3281C56.6172 12.25 56.8594 12.1484 57.0859 12.0312L58.1641 12.875C58.2266 12.9141 58.2969 12.9453 58.3672 12.9453C58.6328 12.9453 59.6875 11.7969 59.875 11.5469C59.9219 11.4922 59.9453 11.4375 59.9453 11.3672C59.9453 11.2969 59.9141 11.2266 59.8672 11.1719C59.5781 10.8203 59.2969 10.4766 59.0313 10.0937C59.1563 9.86719 59.25 9.63281 59.3359 9.38281L60.7813 9.16406C60.9063 9.14062 61 9 61 8.88281V7.14844Z" fill="white"/>
</svg>
