<svg width="184" height="54" viewBox="0 0 184 54" fill="none" xmlns="http://www.w3.org/2000/svg">
<path d="M0 0H184V54H0V0Z" fill="#F4E600"/>
<rect x="52" y="28" width="83" height="16" rx="7" fill="#E6C509"/>
<path d="M120 36C120 37.1016 119.102 38 118 38C116.898 38 116 37.1016 116 36C116 34.8984 116.898 34 118 34C119.102 34 120 34.8984 120 36ZM124 35.1484C124 35.0156 123.906 34.8906 123.773 34.8672L122.344 34.6484C122.266 34.3906 122.156 34.1328 122.023 33.8828C122.289 33.5156 122.578 33.1719 122.844 32.8125C122.883 32.7578 122.906 32.7031 122.906 32.6328C122.906 32.5703 122.891 32.5078 122.852 32.4609C122.523 32 121.977 31.5156 121.563 31.1328C121.508 31.0859 121.438 31.0547 121.367 31.0547C121.297 31.0547 121.227 31.0781 121.18 31.125L120.07 31.9609C119.844 31.8437 119.609 31.75 119.367 31.6719L119.148 30.2344C119.133 30.1016 119.008 30 118.867 30H117.133C116.992 30 116.883 30.0937 116.852 30.2187C116.727 30.6875 116.68 31.1953 116.625 31.6719C116.383 31.75 116.141 31.8516 115.914 31.9687L114.836 31.1328C114.773 31.0859 114.703 31.0547 114.633 31.0547C114.367 31.0547 113.313 32.1953 113.125 32.4531C113.086 32.5078 113.055 32.5625 113.055 32.6328C113.055 32.7031 113.086 32.7656 113.133 32.8203C113.422 33.1719 113.703 33.5234 113.969 33.8984C113.844 34.1328 113.742 34.3672 113.664 34.6172L112.211 34.8359C112.094 34.8594 112 35 112 35.1172V36.8516C112 36.9844 112.094 37.1094 112.227 37.1328L113.656 37.3437C113.734 37.6094 113.844 37.8672 113.977 38.1172C113.711 38.4844 113.422 38.8281 113.156 39.1875C113.117 39.2422 113.094 39.2969 113.094 39.3672C113.094 39.4297 113.109 39.4922 113.148 39.5469C113.477 40 114.023 40.4844 114.438 40.8594C114.492 40.9141 114.563 40.9453 114.633 40.9453C114.703 40.9453 114.773 40.9219 114.828 40.875L115.93 40.0391C116.156 40.1562 116.391 40.25 116.633 40.3281L116.852 41.7656C116.867 41.8984 116.992 42 117.133 42H118.867C119.008 42 119.117 41.9063 119.148 41.7813C119.273 41.3125 119.32 40.8047 119.375 40.3281C119.617 40.25 119.859 40.1484 120.086 40.0312L121.164 40.875C121.227 40.9141 121.297 40.9453 121.367 40.9453C121.633 40.9453 122.688 39.7969 122.875 39.5469C122.922 39.4922 122.945 39.4375 122.945 39.3672C122.945 39.2969 122.914 39.2266 122.867 39.1719C122.578 38.8203 122.297 38.4766 122.031 38.0937C122.156 37.8672 122.25 37.6328 122.336 37.3828L123.781 37.1641C123.906 37.1406 124 37 124 36.8828V35.1484Z" fill="white"/>
</svg>
