<svg width="45" height="39" viewBox="0 0 45 39" fill="none" xmlns="http://www.w3.org/2000/svg">
<path d="M36.2329 12.8161C35.6104 12.1303 35.098 11.524 34.5401 10.9632C32.7143 9.13307 30.5318 7.85613 28.114 7.00358C27.0322 6.62467 25.867 6.48068 24.7396 6.23439C24.2614 6.13208 24.0716 6.34427 24.0868 6.8217C24.1058 7.39386 24.0982 7.96602 24.083 8.53818C24.0678 9.12171 23.7869 9.41347 23.2062 9.44378C22.8077 9.46652 22.4015 9.46273 22.003 9.44378C21.4792 9.42105 21.0882 9.02319 21.073 8.49271C21.0541 7.9016 21.0465 7.30671 21.0692 6.7194C21.0882 6.2647 20.8908 6.13208 20.4847 6.22302C19.5054 6.44279 18.5299 6.67014 17.5545 6.88612C15.9299 7.24609 14.4951 8.03043 13.1211 8.9133C11.6408 9.86437 10.3389 11.0238 9.23814 12.4031C9.15084 12.513 9.1015 12.657 9.08631 12.6835C9.4507 12.9449 9.90997 13.1079 10.0542 13.411C10.3655 14.0817 10.373 14.8395 10.0276 15.5178C9.92895 15.7148 9.58355 15.8626 9.33303 15.8891C8.78266 15.9459 8.2209 15.9649 7.67432 15.9005C7.10118 15.8323 6.80132 16.1089 6.66088 16.5749C6.26993 17.8973 5.78408 19.2122 5.5905 20.5687C5.37036 22.1184 5.30203 23.7174 5.40452 25.2823C5.51079 26.942 6.02701 28.5448 6.68366 30.087C6.733 30.2044 6.78234 30.3257 6.84307 30.4393C7.44659 31.5685 7.12775 31.5912 8.4828 31.5647C8.90412 31.5571 9.32544 31.5571 9.74296 31.5647C10.3996 31.5723 10.8133 31.9702 10.8323 32.6143C10.8437 32.9781 10.8665 33.3456 10.8171 33.7018C10.7526 34.1944 10.4869 34.5506 9.94034 34.5809C9.59873 34.5998 9.25332 34.5998 8.90792 34.5884C8.15637 34.5581 7.52629 34.6642 6.89621 35.2364C5.81065 36.2253 4.1026 35.9904 3.34726 34.7665C2.57295 33.5085 1.88214 32.1672 1.38111 30.7804C0.409417 28.0825 -0.0536551 25.271 0.109559 22.3874C0.212042 20.5687 0.527082 18.7878 1.03191 17.0183C2.14404 13.1458 4.20508 9.87953 7.07461 7.09452C8.97624 5.24921 11.1625 3.79419 13.5956 2.76733C14.9962 2.17623 16.4993 1.81626 17.9758 1.42219C20.2304 0.82351 22.5495 0.823511 24.8459 1.03191C27.0133 1.22516 29.1047 1.80111 31.1354 2.64229C33.724 3.71462 36.009 5.20753 38.0283 7.12104C40.0362 9.02319 41.6 11.236 42.807 13.7407C44.3671 16.9728 45.0503 20.3603 44.9971 23.9145C44.9668 25.8583 44.6138 27.7604 44.0672 29.636C43.5776 31.3298 42.8905 32.9212 42.0175 34.4482C41.1711 35.926 39.2353 36.3466 37.8954 35.0015C37.5956 34.7021 37.3033 34.5771 36.8896 34.596C36.3354 34.6225 35.7812 34.5809 35.2271 34.596C34.7754 34.6074 34.4186 34.3459 34.3617 33.9935C34.2706 33.41 34.2896 32.7848 34.392 32.1975C34.4679 31.7542 34.8703 31.5496 35.3523 31.5685C35.7737 31.5837 36.2064 31.5079 36.6125 31.5837C37.5348 31.758 37.9562 31.2616 38.2484 30.5076C38.8102 29.0639 39.4403 27.6354 39.5428 26.0667C39.6414 24.498 39.8236 22.9103 39.6946 21.353C39.5504 19.5873 39.0493 17.8594 38.2522 16.2528C38.1763 16.0975 37.9182 15.9535 37.7322 15.9421C37.1021 15.9042 36.4721 15.9194 35.842 15.9232C35.322 15.927 35.0183 15.6617 34.9462 15.1692C34.8855 14.7561 34.8513 14.3318 34.8893 13.9187C34.9576 13.2064 35.2385 12.9677 36.2329 12.8161Z" fill="white"/>
<path d="M22.561 19.8829C23.4036 19.826 24.0792 20.2049 24.7586 20.6483C25.1041 20.8756 25.533 21.0499 25.9429 21.0916C27.3055 21.2356 28.6758 21.2811 30.0384 21.4099C32.293 21.6259 34.5477 21.8722 36.8023 22.1147C37.5045 22.1904 38.0283 22.6868 38.0549 23.2855C38.089 23.9979 37.7171 24.517 36.9997 24.5965C35.1018 24.8049 33.2002 24.9792 31.3024 25.146C29.3514 25.3165 27.3966 25.4491 25.4457 25.631C25.2103 25.6537 24.9674 25.828 24.7738 25.9872C22.8153 27.6051 20.0141 26.6048 19.2625 24.3578C18.5527 22.2586 20.2836 19.7843 22.561 19.8829Z" fill="white"/>
<path d="M22.6105 38.8133C20.929 38.8133 19.2437 38.7716 17.5622 38.8284C16.4463 38.8663 15.7403 38.1957 15.6226 37.1158C15.5467 36.4148 15.6568 35.6873 15.7403 34.9787C15.8466 34.0731 16.7651 33.6298 17.7102 33.6298C20.6936 33.6298 23.677 33.626 26.6604 33.6411C27.1691 33.6449 27.6815 33.6942 28.1863 33.7775C29.0669 33.9177 29.4085 34.6225 29.4882 35.3614C29.5679 36.0813 29.4806 36.8429 29.344 37.5629C29.1921 38.3889 28.5734 38.8095 27.7156 38.8133C26.0152 38.8209 24.3109 38.8133 22.6105 38.8133Z" fill="white"/>
</svg>
