<svg width="355" height="112" viewBox="0 0 355 112" fill="none" xmlns="http://www.w3.org/2000/svg">
<g>
<path d="M42.5264 12.1545C42.5264 12.1545 15.4521 15.9318 4.84891 39.4358C-5.75425 62.9398 -5.07451 115.14 74.4902 111.539C154.055 107.939 190.061 84.5469 192.8 79.7424C195.538 74.9379 214.4 92.3969 270.345 78.2361C278.321 76.2178 288.491 70.4813 296.415 67.6885C301.866 65.7654 308.022 64.9581 313.638 66.4644C323.886 69.2145 330.243 75.7715 341.618 76.3196C348.678 76.6576 354.254 74.4293 360.884 73.4546C360.884 73.4546 344.892 75.801 334.479 65.4668C324.132 55.2014 307.303 56.1006 293.522 59.1789C277.379 62.7856 263.104 68.8207 246.236 70.3205C235.846 71.246 219.546 73.1527 210.502 67.1339C197.578 58.539 219.565 -32.0278 42.5264 12.1545Z" fill="#D8D8D8"/>
<path d="M42.5281 12.1556C41.3131 12.346 40.1146 12.6118 38.9226 12.9137C37.7306 13.2123 36.5517 13.5537 35.3794 13.9311C33.0381 14.676 30.7461 15.5719 28.5164 16.6024C24.0571 18.6601 19.8441 21.2789 16.1269 24.4885C14.2716 26.0933 12.5312 27.8392 10.9583 29.7262C9.39528 31.6198 7.99313 33.6446 6.76502 35.7679C4.31864 40.0276 2.65707 44.7041 1.55703 49.4824C1.02178 51.8781 0.624446 54.3033 0.384734 56.7449C0.15159 59.1866 0.0662126 61.6446 0.141738 64.0961C0.315776 68.9958 1.12686 73.8889 2.74573 78.5194C4.35476 83.1467 6.74203 87.5115 9.84516 91.3052C12.9417 95.1022 16.7081 98.338 20.8686 100.927C22.9472 102.224 25.1211 103.366 27.3507 104.38C28.4606 104.898 29.6033 105.345 30.7395 105.804C31.8921 106.221 33.0381 106.654 34.2104 107.018C35.3696 107.415 36.555 107.727 37.7306 108.072C38.9193 108.367 40.1014 108.692 41.3033 108.941C43.6905 109.493 46.1139 109.896 48.5373 110.257C58.2572 111.616 68.1149 111.688 77.907 111.048C97.5109 109.939 117.072 107.537 136.2 103.143C140.974 102.023 145.726 100.799 150.431 99.4276C155.13 98.0328 159.79 96.5002 164.377 94.7839C168.961 93.0609 173.483 91.1674 177.864 89.0014C180.054 87.9184 182.205 86.7632 184.306 85.526C186.398 84.2822 188.45 82.9498 190.289 81.4205C190.519 81.2302 190.752 81.0398 190.959 80.8364C191.166 80.6329 191.402 80.4393 191.58 80.226L191.865 79.9109C191.971 79.8059 192.017 79.7009 192.095 79.5991L192.207 79.4449L192.374 79.1922C192.503 79.0183 192.66 78.8542 192.841 78.7262C193.202 78.4604 193.609 78.3324 193.98 78.27C194.358 78.2044 194.703 78.2142 195.044 78.2241C195.717 78.2635 196.348 78.375 196.965 78.4997C198.2 78.7524 199.389 79.0675 200.581 79.3727C201.769 79.6779 202.955 79.9831 204.143 80.2653C208.892 81.4107 213.712 82.2311 218.572 82.6807C228.295 83.593 238.123 83.1533 247.81 81.8537C252.657 81.2072 257.481 80.3474 262.265 79.3235C264.656 78.8017 267.043 78.2602 269.417 77.6563C271.778 77.0886 274.054 76.3108 276.323 75.4149C280.855 73.6263 285.274 71.4866 289.79 69.5011C292.049 68.5101 294.331 67.5518 296.699 66.7412C299.076 65.9371 301.535 65.3628 304.041 65.0741C306.543 64.782 309.101 64.8017 311.613 65.202C312.24 65.3169 312.864 65.4318 313.482 65.5958C314.106 65.7402 314.69 65.9437 315.298 66.1144C316.496 66.4885 317.675 66.9151 318.828 67.391C323.458 69.2747 327.69 71.8246 332.205 73.5115C336.701 75.2278 341.541 75.9104 346.322 75.3919C351.11 74.9226 355.819 73.3999 360.767 72.6845L360.997 74.2433C359.999 74.3713 359.06 74.4271 358.094 74.4599C357.136 74.4894 356.173 74.4829 355.215 74.4435C353.297 74.3614 351.386 74.1481 349.498 73.7937C347.609 73.436 345.744 72.9306 343.935 72.2677C342.126 71.6015 340.375 70.7581 338.727 69.744C337.079 68.7299 335.535 67.5387 334.149 66.1866L333.141 65.2349C332.806 64.9231 332.448 64.6409 332.104 64.3422C331.749 64.0534 331.378 63.7843 331.017 63.5054L329.884 62.7309C326.804 60.7487 323.303 59.4491 319.691 58.7009C316.073 57.9493 312.342 57.7262 308.625 57.8378C304.905 57.9493 301.187 58.3891 297.51 59.052C290.154 60.4172 282.923 62.5176 275.689 64.5851C268.455 66.6591 261.159 68.684 253.685 69.895C253.219 69.9704 252.752 70.059 252.286 70.1214L250.881 70.3117L249.475 70.5021L248.063 70.6498C246.175 70.8565 244.31 71.0042 242.432 71.1716C238.678 71.4932 234.909 71.7721 231.126 71.8148C227.346 71.8575 223.54 71.6934 219.794 71.0173C217.922 70.6859 216.07 70.1936 214.277 69.5143C213.384 69.1664 212.507 68.7792 211.666 68.3099C211.24 68.0867 210.836 67.8274 210.428 67.5715C210.011 67.3122 209.607 66.9611 209.279 66.5902C208.613 65.8387 208.143 64.9723 207.739 64.0994C207.338 63.2231 207.02 62.3239 206.724 61.4214C206.143 59.6132 205.677 57.7853 205.214 55.9606C204.298 52.308 203.398 48.6652 202.272 45.0848C201.149 41.5077 199.819 37.9962 198.174 34.6291C196.532 31.2653 194.581 28.0492 192.299 25.0792C187.754 19.1195 181.86 14.2363 175.279 10.6394C168.696 7.02294 161.498 4.61085 154.158 3.00279C146.806 1.41113 139.3 0.603818 131.783 0.301896C124.263 -2.63153e-05 116.727 0.193598 109.221 0.71868C101.711 1.24376 94.2304 2.11343 86.7829 3.20954C71.8879 5.41488 57.1407 8.52927 42.5281 12.1556ZM42.5281 12.1556C57.1341 8.51287 71.8814 5.37878 86.7731 3.15047C101.661 0.96153 116.724 -0.423374 131.79 0.114835C139.316 0.390503 146.836 1.17484 154.214 2.74025C161.58 4.30893 168.82 6.68493 175.47 10.285C182.113 13.8654 188.092 18.7552 192.719 24.7477C195.041 27.7342 197.031 30.9733 198.709 34.36C200.39 37.7468 201.753 41.2845 202.905 44.8781C204.061 48.4716 204.987 52.1308 205.923 55.7735C206.396 57.5916 206.869 59.4097 207.45 61.1786C207.742 62.0614 208.061 62.9376 208.448 63.7679C208.836 64.5982 209.282 65.4022 209.873 66.0553C210.172 66.3868 210.484 66.6591 210.868 66.8954C211.259 67.1383 211.647 67.3844 212.057 67.5944C212.862 68.0375 213.712 68.4083 214.576 68.7365C216.31 69.383 218.112 69.849 219.948 70.1641C223.619 70.804 227.372 70.9484 231.116 70.8828C234.863 70.8171 238.606 70.5218 242.35 70.1772C244.218 70 246.106 69.8392 247.958 69.6259L249.354 69.4716L250.743 69.2747L252.132 69.0778C252.595 69.0122 253.054 68.9236 253.517 68.8448C260.909 67.6043 268.147 65.5532 275.364 63.4365C282.588 61.3263 289.829 59.1767 297.276 57.7459C301.003 57.0567 304.78 56.5808 308.586 56.4496C312.388 56.3216 316.227 56.5349 319.987 57.2996C323.74 58.0609 327.421 59.4064 330.688 61.4936L331.89 62.3108C332.274 62.6062 332.668 62.8884 333.043 63.1936C333.411 63.5086 333.792 63.8073 334.146 64.1387L335.194 65.12C336.504 66.39 337.962 67.5058 339.522 68.4608C341.081 69.4125 342.743 70.2067 344.467 70.8335C346.194 71.4571 347.977 71.9329 349.787 72.271C351.599 72.6024 353.438 72.8026 355.284 72.8748C356.206 72.9076 357.129 72.9142 358.052 72.8846C358.965 72.8551 359.907 72.796 360.777 72.6812L361.007 74.24C356.226 74.9292 351.504 76.4683 346.493 76.9737C341.495 77.5251 336.336 76.8031 331.654 75.0145C326.948 73.2588 322.706 70.7023 318.223 68.894C317.104 68.4346 315.971 68.0244 314.825 67.6699C314.25 67.5091 313.672 67.3089 313.097 67.1777C312.526 67.0267 311.942 66.9217 311.36 66.8134C309.019 66.4458 306.615 66.4163 304.238 66.692C301.861 66.9643 299.509 67.5091 297.23 68.2771C294.948 69.0515 292.692 69.9967 290.453 70.9747C285.971 72.9372 281.534 75.0801 276.921 76.895L275.18 77.5546C274.592 77.7581 274.011 77.9747 273.417 78.165C272.238 78.5522 271.01 78.9034 269.818 79.1922C267.427 79.796 265.02 80.3375 262.61 80.8626C257.786 81.8865 252.923 82.7562 248.027 83.3863C238.242 84.6662 228.302 85.0764 218.444 84.1181C213.518 83.6423 208.626 82.7923 203.828 81.6174C202.626 81.3253 201.434 81.0169 200.246 80.7051C199.057 80.3966 197.871 80.075 196.702 79.8289C196.118 79.7074 195.533 79.6057 194.982 79.5696C194.433 79.5335 193.915 79.5958 193.649 79.7993C193.58 79.8485 193.52 79.9076 193.465 79.9798L193.222 80.331C193.117 80.4721 193.015 80.6427 192.903 80.7576L192.568 81.1252C192.348 81.3811 192.105 81.5748 191.872 81.8012C191.639 82.0276 191.396 82.2245 191.153 82.4247C189.202 84.0262 187.111 85.3619 184.973 86.6188C182.832 87.8626 180.645 89.0211 178.425 90.1041C173.986 92.2667 169.418 94.1472 164.794 95.857C160.168 97.5602 155.475 99.0731 150.747 100.445C146.012 101.797 141.234 102.998 136.433 104.094C117.21 108.39 97.5929 110.684 77.9562 111.678C68.1412 112.263 58.2375 112.135 48.4881 110.71C46.0548 110.33 43.6282 109.913 41.2277 109.345C40.0226 109.089 38.8372 108.754 37.6452 108.449C36.4663 108.098 35.2743 107.776 34.1119 107.369C32.9363 106.999 31.787 106.556 30.6312 106.129C29.4917 105.66 28.349 105.203 27.2325 104.678C24.9963 103.648 22.8192 102.486 20.734 101.17C16.5702 98.5382 12.7939 95.2761 9.69082 91.4463C6.58441 87.6198 4.20043 83.2255 2.60125 78.5752C0.992224 73.9217 0.197562 69.0089 0.0399428 64.0994C-0.0290155 61.6413 0.0662126 59.18 0.309209 56.7351C0.558772 54.2902 0.965954 51.8617 1.50777 49.466C2.61439 44.6845 4.28252 40.0047 6.73875 35.7417C7.97015 33.6151 9.37558 31.5902 10.9419 29.6966C12.5148 27.8096 14.2585 26.067 16.1204 24.4622C19.8441 21.2527 24.0637 18.6371 28.5263 16.586C30.7592 15.5588 33.0545 14.6662 35.3958 13.9245C36.5649 13.5504 37.747 13.2091 38.939 12.9137C40.1146 12.6118 41.3164 12.346 42.5281 12.1556Z" fill="black"/>
<path d="M34.1967 29.398C46.7438 29.0009 53.3704 28.804 54.0797 28.8106L54.1716 28.9484L54.9269 34.7309C54.9367 34.8031 54.8744 34.8884 54.7364 34.9803C54.3325 35.0328 52.2244 35.4069 48.4054 36.1059C48.5762 37.4219 49.5547 43.2011 51.3411 53.4369L51.1408 53.6109L44.3599 54.7201C44.2679 54.7825 44.199 54.8153 44.1497 54.8218L43.9757 54.6217L41.6212 36.6179L35.2311 37.3038L35.0571 37.1036L34.0818 29.6376L34.1967 29.398Z" fill="#E6C509"/>
<path d="M75.066 24.436L75.2401 24.6362L75.9855 30.3432C76.015 30.5762 74.2911 31.0487 70.8103 31.7642C70.3703 31.8199 70.17 31.9972 70.2094 32.2892C70.2192 32.7356 70.633 37.0478 71.4539 45.226C73.5949 44.9962 75.2335 44.8059 76.3697 44.6582L77.6142 44.4941C77.6864 44.4843 77.7718 44.5466 77.8638 44.6845L78.5731 50.0994C78.5829 50.1716 78.5205 50.2569 78.3826 50.3488C77.8572 50.4177 71.3324 51.0216 58.8083 52.1603L58.6343 51.9601L58.0235 47.2771C58.0136 47.2049 58.076 47.1195 58.2139 47.0276L59.3862 46.8734C60.3254 46.752 61.7144 46.5452 63.55 46.2564L62.6273 33.5002C59.6391 33.9892 57.7148 34.2911 56.861 34.4027L56.5031 34.5241L56.3291 34.3239L55.5738 28.5415C55.5574 28.42 55.6461 28.3347 55.8365 28.2822C56.3356 28.2198 62.7455 26.9367 75.066 24.436Z" fill="#E6C509"/>
<path d="M96.2395 22.0436L96.4135 22.2438L98.5545 38.6362C98.5808 38.8298 97.1294 39.3188 94.2036 40.0966L94.243 40.3886C97.1524 43.8542 98.9223 45.9808 99.5462 46.7684L99.4083 46.8603C98.2623 47.0112 95.6386 47.451 91.5372 48.1861C91.153 47.999 90.0825 46.8242 88.3224 44.6615C86.9137 43.0108 86.1617 42.1903 86.0632 42.2035L86.0107 42.361L86.5689 48.9114C86.4605 49.0262 86.3686 49.0853 86.2964 49.0952C85.1503 49.2461 83.0586 49.5907 80.0277 50.1355L79.8537 49.9353L76.744 26.1523C76.7276 26.0309 76.8162 25.9456 77.0067 25.8931L96.2395 22.0436ZM83.9288 29.8279C84.0963 33.3919 84.267 35.8237 84.4378 37.1298C84.9763 37.0609 87.1403 36.7262 90.9363 36.1322C90.8377 35.3774 90.4601 32.8701 89.8034 28.6137C89.2648 28.6859 87.3045 29.0895 83.9288 29.8279Z" fill="#E6C509"/>
<path d="M117.413 17.9381L117.587 18.1383L121.042 44.5565C121.051 44.6287 120.989 44.714 120.851 44.8059C117.656 45.0619 116.05 45.1209 116.034 44.9897C115.968 44.4777 115.604 42.8368 114.944 40.0703C111.246 40.4543 108.396 40.7267 106.393 40.8875L106.376 40.7595L106.429 45.5705L106.229 45.7445C103.349 45.9217 101.674 46.0398 101.211 46.1022L101.037 45.902L97.9011 21.8992C97.8682 21.6432 99.7005 21.2297 103.398 20.662C103.818 20.557 108.491 19.6512 117.413 17.9381ZM105.299 26.684L106.412 35.1903L112.399 34.4093C111.348 29.2241 110.796 26.4313 110.744 26.0277L110.626 25.9883L105.299 26.684Z" fill="#E6C509"/>
<path d="M147.912 13.9573L148.086 14.1575L151.541 40.5757C151.551 40.6479 151.488 40.7332 151.35 40.8251C148.155 41.0811 146.55 41.1402 146.533 41.0089C146.467 40.497 146.103 38.8561 145.443 36.0895C141.745 36.4735 138.895 36.7459 136.892 36.9067L136.876 36.7787L136.928 41.5898L136.728 41.7637C133.848 41.9409 132.173 42.0591 131.71 42.1214L131.536 41.9212L128.4 17.9184C128.367 17.6624 130.2 17.2489 133.897 16.6812C134.318 16.5762 138.987 15.6671 147.912 13.9573ZM135.799 22.7032L136.912 31.2096L142.898 30.4285C141.847 25.2433 141.296 22.4505 141.243 22.0469L141.125 22.0075L135.799 22.7032Z" fill="#E6C509"/>
<path d="M20.6349 63.9419C36.7153 63.4332 45.2103 63.1805 46.1167 63.1903L46.2349 63.3643L47.2036 70.7745C47.2167 70.8697 47.1346 70.9747 46.9573 71.0928C46.4417 71.1617 43.736 71.6409 38.8399 72.5335C39.0599 74.2203 40.3143 81.6273 42.6031 94.7478L42.3469 94.9709L33.6549 96.3919C33.5367 96.4707 33.448 96.5134 33.3856 96.5232L33.1624 96.2672L30.1479 73.1932L21.9583 74.0727L21.735 73.8167L20.4839 64.2503L20.6349 63.9419Z" fill="#E6C509"/>
<path d="M72.8594 56.361L73.0826 56.6169L77.5091 90.4782C77.5222 90.5734 77.4401 90.6784 77.2628 90.7965C73.168 91.1247 71.1124 91.2035 71.0894 91.0295C71.004 90.3732 70.5378 88.2728 69.6938 84.7253C64.9521 85.2175 61.3006 85.5654 58.736 85.7754L58.713 85.6113L58.7787 91.7811L58.5226 92.0042C54.8284 92.2307 52.6874 92.3849 52.093 92.4637L51.8698 92.2077L47.8472 61.4411C47.8045 61.113 50.1524 60.5846 54.8941 59.8528C55.4326 59.7149 61.4221 58.5532 72.8594 56.361ZM57.3339 67.5682L58.759 78.4735L66.4298 77.4726C65.0835 70.827 64.3775 67.2466 64.3085 66.7313L64.1575 66.6788L57.3339 67.5682Z" fill="#E6C509"/>
<path d="M100.075 52.4261L100.193 52.6001L104.692 87.0225C104.708 87.1472 104.623 87.2227 104.436 87.2457C99.4412 87.5016 96.9324 87.541 96.9127 87.3704L95.0114 72.8321L94.8243 72.8551L90.4963 79.9076C89.9906 79.5762 87.8529 77.3446 84.0832 73.2096L83.8008 73.2457L85.6758 87.5968C85.6922 87.7215 85.6364 87.7937 85.5116 87.8101C81.1508 88.0464 78.9606 88.0759 78.9376 87.9053L74.9544 57.421C74.915 57.1092 76.3336 56.7646 79.2101 56.3872C79.2003 56.3085 80.1296 56.1247 82.0013 55.8326C82.3001 55.7932 83.6661 57.4899 86.1027 60.9259L89.1762 64.7229C89.278 64.5194 89.7739 61.0211 90.6671 54.2246C91.199 54.0276 94.335 53.4304 100.075 52.4261Z" fill="#E6C509"/>
<path d="M127.563 49.315L127.681 49.4889L130.696 72.563C130.729 72.8124 128.722 73.5213 124.673 74.6863C124.604 74.7585 121.826 75.661 116.343 77.397C117.613 82.254 118.277 84.9024 118.336 85.3422L118.162 85.4603L106.994 86.9174C106.898 86.9306 106.793 86.8485 106.675 86.6713L102.617 55.6258C102.584 55.3764 103.749 55.0318 106.11 54.5986C114.714 52.39 121.866 50.631 127.563 49.315ZM111.624 60.2662L112.934 70.3019L120.237 68.4903C120.165 67.9292 119.879 64.5292 119.383 58.3005L119.288 58.3136C118.648 58.3956 116.093 59.0454 111.624 60.2662Z" fill="#E6C509"/>
<path d="M154.723 45.6722L154.946 45.9282L159.372 79.7895C159.386 79.8846 159.303 79.9897 159.126 80.1078C155.031 80.436 152.976 80.5147 152.953 80.3408C152.867 79.6844 152.401 77.5841 151.557 74.0365C146.815 74.5288 143.164 74.8767 140.599 75.0867L140.576 74.9226L140.642 81.0923L140.386 81.3155C136.692 81.5419 134.551 81.6962 133.956 81.7749L133.733 81.5189L129.707 50.7524C129.665 50.4242 132.012 49.8959 136.754 49.164C137.296 49.0295 143.282 47.8645 154.723 45.6722ZM139.197 56.8827L140.622 67.788L148.293 66.7871C146.947 60.1415 146.241 56.5611 146.172 56.0459L146.021 55.9934L139.197 56.8827Z" fill="#E6C509"/>
<path d="M168.81 44.6451C176.55 44.5729 180.424 44.5827 180.434 44.6779L180.444 44.7468L183.298 65.1233L183.127 65.2874L171.749 66.774C171.686 66.7806 171.614 66.7281 171.535 66.6099L168.695 44.8715L168.81 44.6451ZM172.143 70.1345C179.942 69.5471 183.846 69.2977 183.859 69.3929L183.948 69.5241L184.066 70.4397C184.237 71.7524 184.496 73.5476 184.841 75.8251C184.861 75.9826 180.96 76.7998 173.135 78.2831L173.046 78.1519L172.015 70.2724C172.021 70.1903 172.064 70.1444 172.143 70.1345Z" fill="#E6C509"/>
<path d="M36.1899 29.1387C48.7371 28.7416 55.3636 28.5447 56.0729 28.5513L56.1649 28.6891L56.9201 34.4716C56.93 34.5438 56.8676 34.6291 56.7297 34.721C56.3258 34.7735 54.2176 35.1476 50.3986 35.8467C50.5694 37.1626 51.5479 42.9418 53.3343 53.1776L53.134 53.3516L46.3531 54.4608C46.2611 54.5232 46.1922 54.556 46.1429 54.5625L45.9689 54.3624L43.6145 36.3586L37.2243 37.0445L37.0503 36.8443L36.075 29.3783L36.1899 29.1387Z" fill="#066167"/>
<path d="M77.0626 24.1735L77.2366 24.3736L77.982 30.0806C78.0116 30.3136 76.2876 30.7862 72.8068 31.5016C72.3668 31.5574 72.1665 31.7346 72.2059 32.0267C72.2158 32.473 72.6295 36.7853 73.4505 44.9634C75.5914 44.7337 77.23 44.5434 78.3662 44.3957L79.6107 44.2316C79.683 44.2217 79.7684 44.2841 79.8603 44.4219L80.5696 49.8368C80.5794 49.909 80.517 49.9944 80.3791 50.0863C79.8537 50.1552 73.329 50.759 60.8048 51.8978L60.6308 51.6976L60.02 47.0145C60.0102 46.9423 60.0725 46.857 60.2105 46.7651L61.3828 46.6109C62.3219 46.4894 63.7109 46.2827 65.5465 45.9939L64.6238 33.2377C61.6356 33.7267 59.7113 34.0286 58.8576 34.1402L58.4996 34.2616L58.3256 34.0614L57.5703 28.2789C57.5539 28.1575 57.6426 28.0722 57.833 28.0197C58.3289 27.9606 64.7387 26.6774 77.0626 24.1735Z" fill="#066167"/>
<path d="M98.236 21.7843L98.41 21.9845L100.551 38.3769C100.577 38.5705 99.1259 39.0595 96.2001 39.8373L96.2395 40.1294C99.1489 43.5949 100.919 45.7215 101.543 46.5091L101.405 46.601C100.259 46.752 97.6351 47.1917 93.5337 47.9268C93.1495 47.7398 92.0757 46.5649 90.3189 44.4022C88.9102 42.7515 88.1582 41.931 88.0597 41.9442L88.0072 42.1017L88.5654 48.6521C88.4571 48.767 88.3651 48.826 88.2929 48.8359C87.1469 48.9868 85.0551 49.3314 82.0242 49.8762L81.8502 49.676L78.7405 25.8931C78.7241 25.7716 78.8128 25.6863 79.0032 25.6338L98.236 21.7843ZM85.922 29.5686C86.0895 33.1326 86.2602 35.5644 86.431 36.8706C86.9695 36.8017 89.1335 36.4669 92.9295 35.8729C92.831 35.1181 92.4533 32.6108 91.7966 28.3544C91.2581 28.4233 89.301 28.8302 85.922 29.5686Z" fill="#066167"/>
<path d="M119.41 17.6788L119.584 17.879L123.038 44.2972C123.048 44.3694 122.986 44.4547 122.848 44.5466C119.653 44.8026 118.047 44.8617 118.03 44.7304C117.965 44.2185 117.6 42.5776 116.94 39.811C113.243 40.195 110.392 40.4674 108.389 40.6282L108.373 40.5002L108.425 45.3113L108.225 45.4852C105.345 45.6624 103.671 45.7806 103.208 45.8429L103.034 45.6427L99.8976 21.6399C99.8648 21.3839 101.697 20.9704 105.395 20.4027C105.812 20.2977 110.484 19.3886 119.41 17.6788ZM107.296 26.4247L108.409 34.9311L114.395 34.15C113.344 28.9648 112.793 26.172 112.74 25.7684L112.622 25.729L107.296 26.4247Z" fill="#066167"/>
<path d="M149.909 13.6981L150.083 13.8982L153.537 40.3164C153.547 40.3886 153.485 40.474 153.347 40.5659C150.152 40.8218 148.546 40.8809 148.53 40.7496C148.464 40.2377 148.099 38.5968 147.439 35.8303C143.742 36.2142 140.892 36.4866 138.889 36.6474L138.872 36.5194L138.925 41.3305L138.724 41.5044C135.845 41.6817 134.17 41.7998 133.707 41.8621L133.533 41.662L130.397 17.6591C130.364 17.4032 132.196 16.9897 135.894 16.4219C136.311 16.3169 140.984 15.4079 149.909 13.6981ZM137.795 22.444L138.908 30.9503L144.895 30.1692C143.844 24.984 143.292 22.1913 143.24 21.7876L143.121 21.7482L137.795 22.444Z" fill="#066167"/>
<path d="M22.6282 63.6793C38.7086 63.1706 47.2036 62.9179 48.1099 62.9278L48.2281 63.1017L49.1968 70.5119C49.2099 70.6071 49.1278 70.7121 48.9505 70.8303C48.435 70.8992 45.7292 71.3783 40.8332 72.2709C41.0532 73.9578 42.3075 81.3647 44.5963 94.4852L44.3402 94.7084L35.6481 96.1294C35.5299 96.2081 35.4413 96.2508 35.3789 96.2606L35.1556 96.0047L32.1411 72.9306L23.9515 73.8101L23.7282 73.5541L22.4771 63.9878L22.6282 63.6793Z" fill="#066167"/>
<path d="M74.8526 56.0984L75.0759 56.3544L79.5024 90.2157C79.5155 90.3108 79.4334 90.4159 79.2561 90.534C75.1613 90.8622 73.1057 90.9409 73.0827 90.767C72.9973 90.1107 72.531 88.0103 71.6871 84.4627C66.9454 84.955 63.2939 85.3029 60.7293 85.5129L60.7063 85.3488L60.772 91.5185L60.5158 91.7417C56.8216 91.9681 54.6806 92.1224 54.0863 92.2011L53.863 91.9452L49.8404 61.1786C49.7977 60.8504 52.1456 60.3221 56.8873 59.5902C57.4258 59.4557 63.4154 58.2907 74.8526 56.0984ZM59.3271 67.309L60.7523 78.2143L68.4231 77.2133C67.0767 70.5677 66.3707 66.9873 66.3018 66.4721L66.1507 66.4196L59.3271 67.309Z" fill="#066167"/>
<path d="M102.068 52.1636L102.186 52.3375L106.685 86.7599C106.702 86.8846 106.616 86.9601 106.429 86.9831C101.434 87.239 98.9256 87.2784 98.9059 87.1078L97.0047 72.5696L96.8175 72.5925L92.4895 79.6451C91.9838 79.3136 89.8461 77.082 86.0764 72.947L85.794 72.9831L87.669 87.3342C87.6854 87.4589 87.6296 87.5311 87.5048 87.5475C83.144 87.7838 80.9538 87.8134 80.9308 87.6427L76.9476 57.1584C76.9082 56.8466 78.3268 56.5021 81.2033 56.1247C81.1935 56.0459 82.1228 55.8621 83.9945 55.57C84.2933 55.5307 85.6594 57.2273 88.0959 60.6633L91.1695 64.4603C91.2713 64.2569 91.7671 60.7585 92.6603 53.962C93.1955 53.7684 96.3282 53.1678 102.068 52.1636Z" fill="#066167"/>
<path d="M129.559 49.0525L129.678 49.2264L132.692 72.3005C132.725 72.5499 130.719 73.2588 126.67 74.4238C126.601 74.496 123.823 75.3985 118.339 77.1345C119.61 81.9915 120.273 84.6399 120.332 85.0797L120.158 85.1978L108.99 86.6549C108.895 86.668 108.79 86.586 108.672 86.4088L104.613 55.3633C104.58 55.1139 105.746 54.7693 108.107 54.3361C116.707 52.1308 123.859 50.3685 129.559 49.0525ZM113.617 60.007L114.927 70.0426L122.23 68.2311C122.158 67.6699 121.872 64.27 121.376 58.0412L121.281 58.0544C120.644 58.1364 118.086 58.7862 113.617 60.007Z" fill="#066167"/>
<path d="M156.716 45.413L156.939 45.669L161.366 79.5302C161.379 79.6254 161.297 79.7304 161.119 79.8486C157.025 80.1767 154.969 80.2555 154.946 80.0816C154.861 79.4252 154.394 77.3249 153.55 73.7773C148.809 74.2696 145.157 74.6174 142.593 74.8275L142.57 74.6634L142.635 80.8331L142.379 81.0562C138.685 81.2827 136.544 81.4369 135.95 81.5157L135.726 81.2597L131.704 50.4932C131.661 50.165 134.009 49.6367 138.751 48.9048C139.289 48.7703 145.279 47.6052 156.716 45.413ZM141.191 56.6202L142.616 67.5255L150.286 66.5246C148.94 59.879 148.234 56.2986 148.165 55.7834L148.014 55.7309L141.191 56.6202Z" fill="#066167"/>
<path d="M170.803 44.3858C178.543 44.3136 182.418 44.3235 182.428 44.4186L182.437 44.4875L185.291 64.864L185.12 65.0281L173.742 66.5147C173.68 66.5213 173.607 66.4688 173.529 66.3506L170.688 44.6123L170.803 44.3858ZM174.136 69.872C181.935 69.2845 185.839 69.0351 185.852 69.1303L185.941 69.2616L186.059 70.1772C186.23 71.4899 186.49 73.285 186.834 75.5625C186.854 75.7201 182.953 76.5372 175.128 78.0206L175.039 77.8893L174.008 70.0098C174.015 69.9278 174.057 69.8818 174.136 69.872Z" fill="#066167"/>
</g>
<defs>
<clipPath >
<rect width="361" height="112" fill="white"/>
</clipPath>
</defs>
</svg>
