<svg width="217" height="104" viewBox="0 0 217 104" fill="none" xmlns="http://www.w3.org/2000/svg">
<path d="M94.9897 69.1303C94.9897 69.1303 97.8788 73.3523 99.1845 73.7226C100.481 74.1022 84.0906 69.3154 84.0906 69.3154L0 46.3352L11.8344 47.7796C11.8344 47.7796 6.87096 35.0488 27.7987 32.1045C27.7987 32.1045 36.142 31.7805 47.0874 35.8821C47.0874 35.8821 42.6426 30.2991 50.7636 29.2343C50.7636 29.2343 51.7637 29.1417 57.1346 30.8361C57.1346 30.8361 57.5976 19.9571 79.3958 24.8179C79.3958 24.8179 94.9063 28.1696 98.5085 38.5023C98.5085 38.5023 101.592 35.3821 108.093 39.8726C108.093 39.8726 109.732 40.9374 109.046 42.1595C109.046 42.1503 91.1097 47.9833 94.9897 69.1303Z" fill="#D5D5D3"/>
<path d="M99.0272 43.5576C99.0272 43.5576 81.5905 45.2797 87.7485 65.973C87.7485 65.973 88.906 69.1025 89.906 69.3895C90.9061 69.6765 79.3496 66.3063 79.3496 66.3063L14.9736 48.8073L24.067 49.798C24.067 49.798 20.4556 39.4097 36.6237 36.6413C36.6237 36.6413 43.0501 36.234 51.4212 39.4282C51.4212 39.4282 48.0876 34.9099 54.3659 33.9007C54.3659 33.9007 55.1438 33.8082 59.246 35.1136C59.246 35.1136 59.7831 26.1604 76.4882 29.7991C76.4882 29.7991 88.3781 32.299 90.9802 40.7337C90.9802 40.7337 93.4063 38.1135 98.3327 41.6966C98.3327 41.6966 99.5736 42.5392 99.0272 43.5576C99.0272 43.5576 95.3417 42.2706 99.0272 43.5576Z" fill="#C3C2C0"/>
<path d="M96.175 44.3539C96.175 44.3539 75.8769 45.8075 80.2014 60.3345C80.2014 60.3345 81.0163 62.5288 81.7108 62.7325C82.4053 62.9362 74.3027 60.5659 74.3027 60.5659L29.1136 48.2796L35.4938 48.974C35.4938 48.974 32.9566 41.6873 44.3094 39.743C44.3094 39.743 48.8191 39.456 54.6899 41.6966C54.6899 41.6966 52.3471 38.5301 56.7549 37.8172C56.7549 37.8172 57.3013 37.7524 60.1811 38.669C60.1811 38.669 60.5608 32.3823 72.284 34.9377C72.284 34.9377 80.6274 36.6876 82.4608 42.6132C82.4608 42.6132 84.1647 40.7707 87.628 43.2891C87.628 43.2891 88.5077 43.8817 88.1187 44.6039C88.1187 44.6039 93.5822 43.4465 96.175 44.3539Z" fill="#4A494A"/>
<path d="M148.142 36.2988C148.142 36.2988 150.448 39.6597 151.476 39.956C152.504 40.2522 139.456 36.4469 139.456 36.4469L72.4784 18.1424L81.9051 19.2904C81.9051 19.2904 77.9511 9.15213 94.6192 6.8004C94.6192 6.8004 101.259 6.54116 109.982 9.8095C109.982 9.8095 106.444 5.3653 112.908 4.51349C112.908 4.51349 113.704 4.43942 117.982 5.7912C117.982 5.7912 118.353 -2.87498 135.715 0.995172C135.715 0.995172 148.068 3.66169 150.939 11.8927C150.939 11.8927 153.393 9.40211 158.569 12.9852C158.569 12.9852 159.875 13.8278 159.329 14.8092C159.338 14.8092 145.049 19.4571 148.142 36.2988Z" fill="#D5D5D3"/>
<path d="M151.356 15.9388C151.356 15.9388 137.466 17.3091 142.373 33.7896C142.373 33.7896 143.299 36.2802 144.087 36.5117C144.883 36.7432 135.678 34.0581 135.678 34.0581L84.4055 20.1145L91.6469 20.9015C91.6469 20.9015 88.7763 12.6334 101.648 10.4206C101.648 10.4206 106.769 10.0965 113.436 12.6427C113.436 12.6427 110.778 9.05028 115.779 8.24477C115.779 8.24477 116.399 8.1707 119.668 9.20767C119.668 9.20767 120.094 2.07844 133.4 4.97643C133.4 4.97643 142.874 6.96706 144.948 13.6796C144.948 13.6796 146.883 11.5964 150.809 14.4481C150.8 14.4481 151.791 15.124 151.356 15.9388C151.356 15.9388 148.42 14.9111 151.356 15.9388Z" fill="#C3C2C0"/>
<path d="M149.087 16.5684C149.087 16.5684 132.919 17.7257 136.364 29.2992C136.364 29.2992 137.012 31.0491 137.568 31.2065C138.123 31.3731 131.669 29.4843 131.669 29.4843L95.675 19.6978L100.759 20.2534C100.759 20.2534 98.7401 14.4481 107.778 12.9019C107.778 12.9019 111.371 12.6704 116.047 14.4574C116.047 14.4574 114.186 11.9297 117.695 11.365C117.695 11.365 118.131 11.3094 120.418 12.0409C120.418 12.0409 120.724 7.03187 130.058 9.0688C130.058 9.0688 136.706 10.4669 138.16 15.1796C138.16 15.1796 139.512 13.7167 142.272 15.7166C142.272 15.7166 142.966 16.1888 142.661 16.7628C142.67 16.7628 147.022 15.8462 149.087 16.5684Z" fill="#4A494A"/>
<path d="M151.976 16.6424L181.895 45.7705L153.661 13.1426L151.976 16.6424Z" fill="#828282" stroke="#828282" stroke-miterlimit="10"/>
<path d="M154.745 48.6499L181.895 45.7705L153.911 46.2797L154.745 48.6499Z" fill="#828282" stroke="#828282" stroke-miterlimit="10"/>
<path d="M172.728 66.9452L181.562 46.1315L170.728 66.7693L172.728 66.9452Z" fill="#828282" stroke="#828282" stroke-miterlimit="10"/>
<path d="M199.675 75.0281L181.896 45.7705L196.147 75.8891L199.675 75.0281Z" fill="#828282" stroke="#828282" stroke-miterlimit="10"/>
<path d="M212 40.0023L181.562 46.1315L213.417 42.6595L212 40.0023Z" fill="#828282" stroke="#828282" stroke-miterlimit="10"/>
<path d="M196.823 20.0034L181.896 45.7705L199.675 20.7626L196.823 20.0034Z" fill="#828282" stroke="#828282" stroke-miterlimit="10"/>
<path d="M211.389 57.9179L181.896 45.7705L211.213 60.9363L211.389 57.9179Z" fill="#828282" stroke="#828282" stroke-miterlimit="10"/>
<path d="M169.524 5.48566L181.895 45.7705L172.617 3.24505L169.524 5.48566Z" fill="#828282" stroke="#828282" stroke-miterlimit="10"/>
<path d="M177.006 3.89316C160.097 0.263733 148.161 11.5872 148.161 28.7158C148.161 45.8353 160.088 66.1119 177.006 75.1855C196.971 85.8886 216 77.3242 216 54.1774C216 31.0305 196.971 8.17996 177.006 3.89316ZM177.636 71.0283C162.801 63.075 152.346 45.2983 152.346 30.2806C152.346 15.2629 162.801 5.33752 177.636 8.52253C195.137 12.2723 211.833 32.3082 211.833 52.6034C211.833 72.9078 195.137 80.4167 177.636 71.0283Z" fill="#0F0E09" stroke="#0F0E09" stroke-miterlimit="10"/>
<path d="M91.9246 30.0121L138.206 21.6699V62.2047L108 71.232" fill="#444443"/>
<path d="M91.9246 30.0121L138.206 21.6699V62.2047L108 71.232" stroke="#444443" stroke-miterlimit="10"/>
<path d="M138.79 21.6699L138.206 51.6035L199.841 72.9171V32.5675L138.79 21.6699Z" fill="#444443" stroke="#444443" stroke-miterlimit="10"/>
<path d="M180.293 17.9202C178.941 18.3738 178.941 18.8831 177.571 19.2164C173.83 20.1423 171.265 19.096 169.413 23.4661C169.126 24.142 168.931 24.8735 168.7 25.5957C168.515 26.179 168.191 26.3271 167.811 25.9475C167.626 25.7623 167.468 25.5308 167.32 25.2994C165.144 21.7255 165.551 23.3736 163.672 19.5127C163.588 19.346 162.523 19.9849 162.44 19.8089C162.533 20.6052 160.579 19.059 160.708 19.8089C161.06 21.7996 161.959 19.9386 161.653 21.9755C161.31 24.2902 160.468 26.1975 158.847 27.3456C158.477 27.6048 158.06 27.7252 157.643 27.9196C157.801 27.2437 157.995 26.6882 158.042 26.1141C158.208 24.1235 157.579 22.5588 156.458 21.2996C155.588 20.3274 154.569 19.7256 153.504 19.2164C151.004 18.022 152.736 21.1237 150.078 20.883C149.004 20.7811 150.939 21.5125 149.865 21.4663C155.171 23.1513 150.05 26.3641 149.096 30.1417C149.031 29.9843 148.967 29.8454 148.911 29.7065C148.402 28.4288 147.754 27.2807 146.994 26.2438C145.577 24.3272 143.846 23.1236 141.92 22.3644C139.531 21.4107 140.457 24.142 138.781 21.6792C137.984 20.5033 139.253 23.6421 138.512 22.4014C138.077 21.6792 136.892 22.2162 136.484 21.4663C136.632 22.568 135.836 22.2718 136.049 23.3365C136.604 26.1327 134.03 20.2719 135.188 22.744C136.262 25.0401 137.605 26.9752 139.447 28.2344C139.707 28.4103 139.966 28.577 140.262 28.7714C138.651 29.6232 135.614 29.901 133.021 28.6603C129.345 26.9011 128.937 27.6974 127.669 22.8828C128.002 28.7899 127.891 29.5121 131.271 33.5767C131.048 33.5767 130.919 33.6045 130.789 33.5674C129.946 33.3174 129.095 33.1045 128.27 32.7712C126.872 32.1971 125.511 31.4564 124.103 30.938C122.594 30.3824 121.057 30.2898 119.566 31.1231C119.26 31.299 118.973 31.5583 118.677 31.7805C118.696 31.8268 118.705 31.8638 118.723 31.9101C119.02 31.9564 119.316 31.9842 119.612 32.0397C120.927 32.3082 122.168 32.9008 123.39 33.5674C125.039 34.4748 126.585 35.6136 127.872 37.2802C128.946 38.6597 129.456 40.3448 129.576 42.2799C129.687 44.0854 130.03 45.826 130.678 47.437C131.456 49.3814 132.595 50.798 134.234 51.409C134.632 51.5572 135.049 51.5849 135.521 51.6868C135.077 49.6591 135.271 47.8444 135.966 46.1223C136.66 44.4187 137.669 43.1873 139.142 42.5577C138.882 43.0114 138.605 43.3632 138.447 43.7798C137.919 45.1501 137.993 46.5204 138.549 47.8537C139.031 49.011 139.771 49.8536 140.605 50.5572C142.883 52.5016 145.364 53.7515 148.013 54.4459C148.365 54.5385 148.717 54.594 149.078 54.6681C149.087 54.6311 149.096 54.594 149.115 54.5663C148.772 54.1496 148.43 53.7422 148.068 53.3071C148.42 53.1775 148.717 53.0941 148.994 52.9552C149.281 52.8164 149.559 52.6219 149.846 52.446C150.17 52.2516 150.485 52.0201 150.819 51.8812C151.522 51.5942 151.939 52.1034 151.791 53.0478C151.689 53.6682 151.541 54.2792 151.393 55.0014C151.902 54.0478 152.254 53.1126 152.365 52.0479C152.439 51.3627 152.171 50.9183 151.643 50.8165C151.134 50.7146 150.698 50.9554 150.337 51.409C150.143 51.6498 149.967 51.9183 149.772 52.1497C149.457 52.5201 149.106 52.6404 148.781 52.5293C148.819 52.4923 148.856 52.446 148.893 52.4182C149.819 51.6775 150.467 50.6313 150.874 49.3166C151.124 48.511 151.476 47.8166 152.106 47.5018C152.689 47.2056 153.31 47.0296 153.921 46.8074C154.162 46.7149 154.263 46.8908 154.3 47.187C154.384 47.7611 154.467 48.3351 154.569 48.9092C154.68 49.5388 154.615 50.1221 154.347 50.6683C153.949 51.4924 153.541 52.3164 153.161 53.1589C152.726 54.1218 152.171 54.9551 151.504 55.6588C150.476 56.7421 149.569 58.029 148.318 58.7234C148.374 58.7512 148.411 58.7605 148.457 58.7512C148.522 58.742 148.587 58.7327 148.652 58.7142C150.189 58.3716 151.374 57.2698 152.374 55.7699C153.328 54.3163 153.986 52.6219 154.615 50.9091C154.671 50.7609 154.736 50.6128 154.791 50.4739C154.819 50.4832 154.847 50.4924 154.884 50.5017C154.884 50.7424 154.902 50.9831 154.884 51.2146C154.791 52.2053 154.421 53.0386 153.995 53.8256C153.68 54.4089 153.347 54.9829 153.06 55.5847C152.421 56.9272 152.254 58.3901 152.532 59.9271C152.624 60.4271 152.791 60.8992 152.93 61.39C152.958 61.3714 152.995 61.3622 153.023 61.3437C153.032 61.3159 153.041 61.2881 153.041 61.2603C153.041 61.1863 153.041 61.1122 153.041 61.0381C153.041 58.7975 153.652 56.8995 154.865 55.3347C155.273 54.8162 155.717 54.3533 156.125 53.8348C156.56 53.2793 157.014 52.7238 157.393 52.1034C157.782 51.4831 157.958 50.7054 157.754 49.9184C157.541 49.0943 157.301 48.2611 156.967 47.5111C156.773 47.0759 156.421 46.6593 156.069 46.4556C155.282 46.0112 154.43 45.8908 153.587 46.076C152.069 46.4093 151.096 47.6778 150.402 49.4184C150.143 50.0665 149.856 50.6869 149.522 51.2702C149.133 51.9646 148.606 52.4645 147.948 52.6497C147.8 52.6867 147.578 52.659 147.467 52.5386C147.105 52.159 146.763 51.7331 146.429 51.2979C145.957 50.6869 145.828 49.9462 146.022 49.1221C146.105 48.761 146.216 48.4092 146.346 48.0666C147.004 46.4093 148.013 45.1872 149.226 44.2613C151.254 42.7336 153.458 42.0114 155.791 42.067C157.041 42.0947 158.236 42.4836 159.31 43.3632C161.236 44.9372 162.162 47.1963 161.857 50.2147C161.653 52.2053 160.958 53.8996 159.958 55.3903C158.801 57.1124 157.366 58.3624 155.902 59.566C155.699 59.7326 155.495 59.8993 155.264 60.0845C155.328 60.1308 155.356 60.1678 155.384 60.1678C155.458 60.1863 155.541 60.2048 155.615 60.2141C159.069 60.4363 161.949 58.8808 164.209 55.4181C164.94 54.2978 165.348 53.0201 165.255 51.5109C165.237 51.2053 165.246 50.8998 165.246 50.585C165.246 49.5758 165.477 48.6499 165.94 47.8444C166.681 46.5482 167.681 45.7705 168.857 45.3909C170.191 44.9557 171.524 45.1223 172.858 45.4186C173.311 45.5205 173.756 45.6408 174.284 45.7705C174.034 46.076 173.839 46.289 173.654 46.5204C172.691 47.7333 171.654 48.8629 170.793 50.1961C169.505 52.1868 168.783 54.4737 169.107 57.1958C169.385 59.5752 170.339 61.1585 172.061 61.9177C172.283 62.0196 172.515 62.0473 172.821 62.1307C172.672 61.6492 172.58 61.2696 172.45 60.9178C171.876 59.316 171.635 57.6402 171.774 55.881C171.858 54.8625 171.969 53.8904 172.561 53.0664C175.349 49.1499 178.701 46.7334 182.784 46.1501C183.896 45.9927 184.951 45.5205 185.738 44.4094C187.266 42.2614 187.563 39.7338 186.794 37.0395C186.044 34.3915 184.488 32.7249 182.562 31.6231C180.747 30.5861 178.821 30.3269 176.858 30.3361C176.173 30.3361 175.478 30.3546 174.802 30.2528C173.96 30.1232 173.543 29.4843 173.432 28.3733C173.284 26.9567 173.404 25.5679 173.756 24.2161C174.487 21.3366 176.006 19.4016 178.09 18.2535C179.386 17.5405 180.738 16.985 182.081 16.411" fill="#E94B23"/>
<path d="M155.523 50.2239C155.819 49.7054 156.014 49.1962 156.06 48.6407C156.088 48.2796 155.912 48.0666 155.578 48.0388C155.254 48.0111 154.995 48.1592 154.773 48.4092C154.652 48.5388 154.56 48.6962 154.439 48.8258C154.254 49.0295 154.041 49.1129 153.828 49.0758C153.856 49.048 153.875 49.0295 153.893 49.011C154.449 48.5759 154.838 48.0018 155.06 47.2981C155.199 46.8722 155.402 46.4926 155.782 46.2982C156.143 46.113 156.523 45.9927 156.903 45.8445C157.051 45.789 157.116 45.8723 157.153 46.0204C157.217 46.3167 157.282 46.613 157.356 46.9C157.44 47.2241 157.421 47.5296 157.264 47.8259C157.032 48.2703 156.801 48.724 156.578 49.1777C156.328 49.7054 156.004 50.1591 155.606 50.5572C154.995 51.1683 154.458 51.8905 153.689 52.3071C153.726 52.3164 153.754 52.3164 153.773 52.3164C153.81 52.3071 153.856 52.2979 153.893 52.2886C154.838 52.0386 155.56 51.3998 156.143 50.5665C156.708 49.7702 157.069 48.8536 157.43 47.9277C157.458 47.8444 157.495 47.7703 157.532 47.6963C157.551 47.6963 157.569 47.7055 157.588 47.7055C157.597 47.8259 157.616 47.9555 157.606 48.0759C157.569 48.5944 157.366 49.048 157.116 49.474C156.93 49.7887 156.736 50.1035 156.569 50.4369C156.199 51.1683 156.134 51.9368 156.347 52.7145C156.412 52.9738 156.532 53.2052 156.634 53.4552C156.653 53.446 156.671 53.4367 156.69 53.4274C156.69 53.4089 156.699 53.3997 156.699 53.3811C156.699 53.3441 156.699 53.3071 156.699 53.27C156.643 52.1127 156.977 51.0942 157.699 50.2147C157.94 49.9276 158.208 49.6591 158.449 49.3721C158.708 49.0573 158.977 48.7518 159.199 48.4092C159.421 48.0666 159.523 47.6592 159.375 47.2611C159.218 46.8445 159.051 46.4278 158.829 46.0482C158.699 45.8353 158.468 45.6316 158.245 45.5482C157.745 45.3631 157.208 45.3353 156.69 45.4834C155.745 45.7334 155.171 46.4463 154.782 47.3815C154.634 47.724 154.467 48.0666 154.282 48.3907C154.05 48.7703 153.736 49.0573 153.328 49.1869C153.236 49.2147 153.097 49.2055 153.023 49.1499C152.782 48.974 152.569 48.761 152.347 48.5573C152.032 48.2611 151.939 47.8815 152.041 47.4463C152.087 47.2519 152.143 47.0667 152.217 46.8815C152.587 45.9834 153.189 45.2983 153.921 44.7613C155.152 43.8632 156.504 43.3817 157.967 43.2891C158.745 43.2428 159.505 43.3817 160.199 43.7798C161.44 44.502 162.07 45.6223 161.949 47.2056C161.875 48.2518 161.477 49.1684 160.884 49.9832C160.199 50.9368 159.338 51.659 158.449 52.3534C158.329 52.446 158.199 52.5479 158.06 52.659C158.106 52.6775 158.116 52.696 158.134 52.696C158.18 52.7053 158.227 52.7053 158.282 52.7053C160.44 52.6497 162.199 51.696 163.533 49.7795C163.959 49.1592 164.19 48.4833 164.088 47.6963C164.07 47.5389 164.07 47.3815 164.061 47.2148C164.042 46.6871 164.153 46.2056 164.422 45.7612C164.848 45.0483 165.459 44.5946 166.181 44.3354C167.005 44.0391 167.839 44.0668 168.681 44.1502C168.968 44.178 169.246 44.215 169.58 44.2613C169.431 44.4279 169.311 44.5483 169.209 44.6779C168.635 45.3538 168.024 45.9927 167.515 46.7241C166.755 47.8166 166.366 49.048 166.635 50.4461C166.866 51.6683 167.496 52.4368 168.598 52.7515C168.737 52.7886 168.885 52.7978 169.08 52.8256C168.978 52.5849 168.913 52.3905 168.82 52.2145C168.422 51.4183 168.228 50.5572 168.274 49.6406C168.302 49.1129 168.348 48.5944 168.691 48.1407C170.339 45.9649 172.367 44.5483 174.904 44.0298C175.589 43.8909 176.238 43.5947 176.71 42.9743C177.617 41.7799 177.738 40.4559 177.191 39.0949C176.654 37.7616 175.645 36.9746 174.413 36.5025C173.256 36.058 172.043 36.021 170.82 36.1228C170.394 36.1599 169.959 36.2062 169.533 36.1877C169.005 36.1599 168.728 35.8543 168.626 35.2803C168.496 34.5489 168.542 33.8267 168.728 33.1045C169.117 31.5768 170.015 30.4935 171.283 29.7899C172.08 29.3547 172.904 28.9936 173.728 28.6325C174.645 28.2251 175.543 27.7807 176.302 27.0585C176.895 26.4938 177.386 25.8549 177.636 25.0216C177.747 24.6605 177.803 24.2902 177.747 23.9013C177.719 23.9198 177.701 23.9198 177.691 23.9291C177.664 23.9754 177.627 24.0309 177.599 24.0865C176.617 25.7716 175.284 26.9752 173.561 27.6048C172.728 27.9103 171.867 28.1048 171.015 28.3455C168.7 29.0121 167.024 30.5491 165.987 32.9008C165.829 33.2619 165.718 33.66 165.598 34.0396C165.496 34.3544 165.301 34.447 165.051 34.2711C164.931 34.1878 164.829 34.0767 164.727 33.9563C163.283 32.2157 161.922 30.3824 160.662 28.4751C160.607 28.3918 160.551 28.3085 160.495 28.2251C160.579 28.6325 160.69 29.0121 160.792 29.3917C161.06 30.4102 161.255 31.4379 161.116 32.5119C160.958 33.7341 160.477 34.7618 159.495 35.447C159.273 35.6044 159.014 35.6877 158.755 35.808C158.838 35.447 158.949 35.1507 158.958 34.8451C159.014 33.8082 158.588 33.0212 157.847 32.4286C157.282 31.9657 156.625 31.7064 155.958 31.5027C154.365 31.012 152.745 30.7528 151.087 30.762C150.411 30.762 149.735 30.8176 149.059 30.8454C152.411 31.4472 153.976 35.3821 153.476 37.3913C153.43 37.308 153.393 37.2432 153.356 37.1691C153.004 36.5302 152.578 35.9654 152.069 35.4747C151.134 34.5489 150.022 34.0211 148.809 33.7156C147.291 33.3452 145.939 32.6508 144.827 31.4564C144.3 30.8917 143.809 30.2806 143.309 29.6695C143.022 29.3177 142.762 28.9381 142.494 28.5677C142.614 29.1325 142.762 29.6788 142.92 30.225C143.337 31.6509 143.827 33.0304 144.614 34.2618C145.337 35.4007 146.226 36.3358 147.402 36.8913C147.568 36.9746 147.735 37.0395 147.93 37.132C146.948 37.6505 145.059 37.9561 143.401 37.4468C141.068 36.7247 139.512 35.0581 138.595 32.6323C138.947 35.6784 140.216 38.1505 142.429 40.0856C142.29 40.0948 142.207 40.1226 142.133 40.1041C141.605 40.0115 141.059 39.956 140.54 39.8171C139.651 39.5949 138.79 39.2801 137.892 39.0764C136.938 38.8634 135.975 38.8912 135.058 39.4004C134.873 39.5023 134.697 39.6597 134.521 39.7893C134.53 39.8078 134.54 39.8356 134.549 39.8541C134.734 39.8634 134.919 39.8634 135.104 39.8819C135.929 39.956 136.725 40.1967 137.503 40.4837C138.558 40.8726 139.549 41.3818 140.392 42.1873C141.096 42.854 141.457 43.6965 141.577 44.6964C141.688 45.6316 141.948 46.5112 142.392 47.3167C142.929 48.2796 143.67 48.9647 144.707 49.1962C144.957 49.2517 145.216 49.2517 145.522 49.2795C145.198 48.2518 145.272 47.2981 145.67 46.3723C146.059 45.4557 146.661 44.7613 147.568 44.3631C147.411 44.6131 147.254 44.8075 147.161 45.0298C146.865 45.7705 146.948 46.4741 147.328 47.1407C147.661 47.7148 148.143 48.1129 148.67 48.437C150.133 49.3258 151.717 49.8536 153.393 50.0758C153.615 50.1035 153.837 50.1128 154.06 50.1406C154.069 50.1221 154.069 50.1035 154.078 50.085C153.856 49.8906 153.634 49.6962 153.393 49.4832C153.606 49.3999 153.791 49.3351 153.967 49.2517C154.143 49.1592 154.31 49.048 154.486 48.9462C154.68 48.8258 154.875 48.6962 155.078 48.6036C155.514 48.4185 155.782 48.6592 155.717 49.1592C155.68 49.5202 155.597 49.8443 155.523 50.2239Z" fill="#F4E600"/>
<path d="M152.967 42.3262L199.841 32.3916V72.9171L152.967 91.1661" fill="#444443"/>
<path d="M152.967 42.3262L199.841 32.3916V72.9171L152.967 91.1661" stroke="#444443" stroke-miterlimit="10"/>
<path d="M91.9244 30.0121L91.3411 63.8435L152.967 91.1661V42.3262L91.9244 30.0121Z" fill="#444443" stroke="#444443" stroke-miterlimit="10"/>
<path d="M91.48 31.9842L157.356 25.7253L199.619 18.7534L139.049 22.3644L91.48 31.9842Z" fill="#191919" stroke="#191919" stroke-miterlimit="10"/>
<path d="M91.48 31.6786V30.0213L157.338 22.3643L199.619 15.874L138.641 20.3089L91.48 30.0213" fill="#4D4C4B"/>
<path d="M91.48 31.6786V30.0213L157.338 22.3643L199.619 15.874L138.641 20.3089L91.48 30.0213" stroke="#4D4C4B" stroke-miterlimit="10"/>
<path d="M91.48 30.0213V31.9842L157.356 25.7253L199.619 18.7534V15.874L157.338 22.3643L91.48 30.0213Z" fill="#4D4C4B" stroke="#4D4C4B" stroke-miterlimit="10"/>
<path d="M93.7859 30.8454L126.261 63.9731L95.6194 26.8641L93.7859 30.8454Z" fill="#828282" stroke="#828282" stroke-miterlimit="10"/>
<path d="M96.7954 67.2507L126.261 63.9731L95.8972 64.5565L96.7954 67.2507Z" fill="#828282" stroke="#828282" stroke-miterlimit="10"/>
<path d="M116.306 88.0644L125.9 64.3898L114.139 87.8607L116.306 88.0644Z" fill="#828282" stroke="#828282" stroke-miterlimit="10"/>
<path d="M145.55 97.2583L126.261 63.9731L141.725 98.2305L145.55 97.2583Z" fill="#828282" stroke="#828282" stroke-miterlimit="10"/>
<path d="M158.93 57.4087L125.9 64.3898L160.458 60.4271L158.93 57.4087Z" fill="#828282" stroke="#828282" stroke-miterlimit="10"/>
<path d="M144.846 32.0675L126.261 63.9731L148.318 32.9656L144.846 32.0675Z" fill="#828282" stroke="#828282" stroke-miterlimit="10"/>
<path d="M158.264 77.7872L126.261 63.9731L158.069 81.2222L158.264 77.7872Z" fill="#828282" stroke="#828282" stroke-miterlimit="10"/>
<path d="M112.834 18.1516L126.261 63.9731L116.195 15.6055L112.834 18.1516Z" fill="#828282" stroke="#828282" stroke-miterlimit="10"/>
<path d="M120.316 12.9667C100.499 8.67993 86.5259 22.0681 86.5259 42.3077C86.5259 62.5566 100.499 86.5274 120.316 97.2491C143.707 109.906 166.005 99.786 166.005 72.4079C166.005 45.0298 143.707 18.0313 120.316 12.9667ZM121.047 92.3512C103.666 82.9443 91.4152 61.927 91.4152 44.178C91.4152 26.4289 103.666 14.6889 121.047 18.4479C141.558 22.8828 161.106 46.576 161.106 70.5746C161.106 94.5733 141.558 103.443 121.047 92.3512Z" fill="#0F0E09" stroke="#0F0E09" stroke-miterlimit="10"/>
</svg>
