<svg width="257" height="272" viewBox="0 0 257 272" fill="none" xmlns="http://www.w3.org/2000/svg">
<path d="M170.734 37.2556L92.0855 113.785L166.304 28.0876L170.734 37.2556Z" fill="#90A492" stroke="#90A492" stroke-miterlimit="10"/>
<path d="M163.456 121.348L92.0855 113.785L165.647 115.123L163.456 121.348Z" fill="#90A492" stroke="#90A492" stroke-miterlimit="10"/>
<path d="M116.184 169.401L92.9618 114.734L121.442 168.939L116.184 169.401Z" fill="#90A492" stroke="#90A492" stroke-miterlimit="10"/>
<path d="M45.3489 190.631L92.0854 113.785L54.5989 192.893L45.3489 190.631Z" fill="#90A492" stroke="#90A492" stroke-miterlimit="10"/>
<path d="M12.95 98.6349L92.9618 114.734L9.22565 105.59L12.95 98.6349Z" fill="#90A492" stroke="#90A492" stroke-miterlimit="10"/>
<path d="M52.8462 46.1075L92.0854 113.785L45.3489 48.1016L52.8462 46.1075Z" fill="#90A492" stroke="#90A492" stroke-miterlimit="10"/>
<path d="M14.5565 145.691L92.0855 113.785L15.019 153.619L14.5565 145.691Z" fill="#90A492" stroke="#90A492" stroke-miterlimit="10"/>
<path d="M124.606 7.97642L92.0855 113.785L116.452 2.06708L124.606 7.97642Z" fill="#90A492" stroke="#90A492" stroke-miterlimit="10"/>
<path d="M2.40985 135.842C2.40985 196.638 52.4325 219.132 104.914 191.02C149.386 167.188 180.739 113.955 180.739 68.9667C180.739 24.0021 149.386 -5.73911 104.914 3.79365C52.4325 15.0287 2.40985 75.0462 2.40985 135.842ZM13.3881 131.732C13.3881 78.4265 57.2522 25.8017 103.283 15.9528C142.278 7.58731 169.76 33.6808 169.76 73.1008C169.76 112.521 142.254 159.236 103.283 180.126C57.2522 204.76 13.3881 185.062 13.3881 131.732Z" fill="#0F0E09" stroke="#0F0E09" stroke-miterlimit="10"/>
<path d="M328.372 58.9961L188.041 33.7294V156.488L279.64 183.846" fill="#444443"/>
<path d="M328.372 58.9961L188.041 33.7294V156.488L279.64 183.846" stroke="#444443" stroke-miterlimit="10"/>
<path d="M186.264 33.7294L188.041 124.388L1.2171 188.953V66.7293L186.264 33.7294Z" fill="#444443" stroke="#444443" stroke-miterlimit="10"/>
<path d="M52.895 23.5887C56.9601 25.3153 63.1672 21.4244 67.1106 23.5887C73.4152 27.0662 78.0158 32.9026 80.2553 41.6329C81.302 45.7183 81.6671 49.9254 81.229 54.2054C80.8882 57.5857 79.6224 59.5311 77.0665 59.9202C74.9974 60.2364 72.904 60.1877 70.835 60.1634C64.8955 60.1391 59.0535 60.9173 53.5522 64.0543C47.7345 67.3859 43.0121 72.4441 40.724 80.4692C38.4115 88.6401 39.2878 96.3004 43.9371 102.793C46.3226 106.149 49.5358 107.56 52.895 108.046C65.285 109.846 75.4356 117.141 83.9066 129.008C85.6835 131.489 86.0243 134.431 86.2921 137.52C86.7059 142.846 86 147.928 84.2474 152.767C83.8579 153.837 83.5658 154.98 83.1276 156.439C84.0526 156.196 84.7585 156.099 85.4401 155.807C90.6736 153.473 93.546 148.682 94.3979 141.484C95.3716 133.24 93.2052 126.285 89.2861 120.278C86.6815 116.266 83.5414 112.837 80.6204 109.165C80.0605 108.46 79.4763 107.803 78.7217 106.903C80.3283 106.514 81.6914 106.149 83.0546 105.833C87.0954 104.933 91.1361 104.423 95.1769 105.736C98.7551 106.903 101.774 109.238 104.013 113.177C105.4 115.633 106.082 118.406 106.106 121.494C106.106 122.418 106.155 123.367 106.082 124.291C105.79 128.863 107.031 132.729 109.247 136.109C116.111 146.591 124.85 151.308 135.317 150.627C135.56 150.603 135.779 150.554 136.023 150.482C136.096 150.457 136.169 150.36 136.388 150.214C135.682 149.655 135.073 149.144 134.465 148.633C130.01 145.01 125.677 141.192 122.172 135.988C119.129 131.489 117.012 126.358 116.403 120.303C115.478 111.159 118.253 104.35 124.119 99.559C127.381 96.9083 131.008 95.7167 134.781 95.6195C141.865 95.4492 148.534 97.6379 154.693 102.258C158.393 105.031 161.436 108.751 163.432 113.761C163.845 114.782 164.162 115.852 164.43 116.947C165.014 119.451 164.649 121.689 163.213 123.537C162.19 124.826 161.168 126.139 160.072 127.282C159.732 127.647 159.074 127.744 158.612 127.622C156.616 127.087 155.009 125.555 153.841 123.464C152.843 121.689 151.967 119.792 151.188 117.846C149.094 112.594 146.149 108.751 141.548 107.73C138.968 107.171 136.388 107.535 134.027 108.873C132.956 109.481 131.884 110.721 131.3 112.059C130.302 114.32 129.572 116.849 128.915 119.354C128.306 121.762 128.842 124.072 130.01 125.969C131.179 127.841 132.517 129.519 133.856 131.221C135.098 132.778 136.461 134.188 137.678 135.769C141.354 140.487 143.179 146.274 143.203 153.035C143.203 153.254 143.203 153.473 143.228 153.692C143.228 153.789 143.252 153.862 143.277 153.959C143.374 154.008 143.471 154.056 143.569 154.105C143.982 152.622 144.494 151.187 144.761 149.679C145.613 145.034 145.102 140.584 143.155 136.523C142.278 134.675 141.28 132.972 140.307 131.197C139.017 128.79 137.897 126.26 137.605 123.269C137.532 122.564 137.605 121.835 137.605 121.105C137.702 121.081 137.775 121.056 137.873 121.032C138.043 121.47 138.238 121.908 138.408 122.345C140.331 127.525 142.303 132.681 145.224 137.058C148.242 141.63 151.845 144.961 156.494 145.983C156.689 146.031 156.884 146.056 157.103 146.08C157.224 146.104 157.37 146.08 157.517 145.983C153.719 143.891 150.969 139.976 147.853 136.693C145.832 134.577 144.153 132.048 142.838 129.106C141.67 126.552 140.453 124.048 139.236 121.567C138.432 119.913 138.238 118.138 138.579 116.241C138.895 114.515 139.138 112.764 139.382 111.037C139.504 110.162 139.796 109.627 140.55 109.894C142.4 110.575 144.275 111.11 146.051 112.01C147.95 112.958 149.046 115.074 149.8 117.506C151.042 121.494 153.013 124.655 155.813 126.917C155.934 127.014 156.032 127.136 156.153 127.258C155.155 127.598 154.109 127.233 153.135 126.115C152.526 125.409 152.015 124.583 151.407 123.877C150.287 122.515 148.973 121.786 147.439 122.078C145.857 122.394 145.029 123.731 145.248 125.798C145.589 129.008 146.66 131.854 148.194 134.748C147.731 132.559 147.269 130.711 146.976 128.838C146.514 125.969 147.78 124.437 149.922 125.288C150.944 125.701 151.894 126.406 152.867 126.99C153.719 127.501 154.571 128.084 155.447 128.522C156.299 128.936 157.176 129.203 158.247 129.592C157.151 130.905 156.105 132.146 155.082 133.41C155.107 133.507 155.155 133.629 155.18 133.726C156.251 133.507 157.322 133.337 158.393 133.045C166.426 130.954 173.972 127.16 180.86 121.275C183.368 119.135 185.607 116.582 187.092 113.08C188.772 109.043 189.015 104.885 187.408 100.726C186.922 99.4617 186.094 98.4161 185.315 97.0299C189.77 98.9268 192.837 102.647 194.93 107.803C197.048 113.007 197.632 118.503 196.293 124.655C197.729 124.364 199.02 124.242 200.212 123.804C205.178 121.956 208.635 117.652 210.996 111.767C212.967 106.879 213.99 101.602 214.331 96.1301C214.696 90.2451 216.254 85.1626 219.515 80.9799C223.434 75.9216 228.108 72.4685 233.098 69.7205C236.798 67.6777 240.571 65.9025 244.539 65.0757C245.44 64.9055 246.34 64.8082 247.241 64.6866C247.29 64.565 247.338 64.4434 247.387 64.2975C246.486 63.6409 245.634 62.8384 244.709 62.3277C240.182 59.7986 235.532 60.0661 230.956 61.7684C226.696 63.3491 222.558 65.5864 218.323 67.313C215.815 68.3343 213.235 68.9666 210.679 69.7205C210.314 69.8421 209.9 69.7448 209.243 69.7448C219.467 57.4398 219.126 55.2511 220.148 37.3528C216.302 51.9438 215.061 49.5363 203.912 54.862C196.05 58.6313 186.849 57.7559 181.956 55.1782C182.856 54.5945 183.66 54.0838 184.439 53.5488C190.013 49.7065 194.102 43.8458 197.34 36.9151C200.845 29.4008 193.031 47.1774 194.735 38.6904C195.393 35.456 192.958 36.3558 193.421 33.0242C192.204 35.2858 188.601 33.6808 187.287 35.8451C185.023 39.5901 188.893 30.0817 186.483 33.6565C181.396 41.1222 184.22 32.854 176.966 35.7235C171.148 38.0338 165.89 41.6815 161.582 47.4693C159.269 50.6063 157.297 54.0838 155.764 57.9504C155.594 58.3638 155.423 58.7773 155.204 59.2879C152.307 47.834 136.777 38.1067 152.892 33.0242C149.63 33.1701 155.496 30.9571 152.234 31.249C144.202 32.0028 149.435 22.5917 141.865 26.2151C138.652 27.7471 135.56 29.571 132.907 32.5135C129.475 36.3315 127.576 41.0735 128.087 47.1045C128.233 48.8554 128.842 50.5334 129.304 52.5761C128.063 51.9925 126.773 51.6277 125.653 50.8252C120.712 47.3233 118.18 41.5599 117.133 34.5562C116.208 28.3794 118.959 34.0212 120.006 27.9903C120.395 25.7044 114.456 30.3978 114.748 27.9903C114.504 28.501 111.267 26.5799 111.023 27.0905C105.327 38.7876 106.569 33.7781 99.9479 44.624C99.5097 45.3536 99.0229 46.0588 98.463 46.5938C97.2946 47.7368 96.3209 47.299 95.7611 45.5238C95.0795 43.3595 94.471 41.1222 93.619 39.0794C88.0203 25.8503 80.2309 29.0117 68.8876 26.2151C64.7251 25.1937 64.7251 23.6373 60.6357 22.2755" fill="#E94B23"/>
<path d="M134.952 117.093C134.732 115.585 135.56 114.855 136.875 115.39C137.507 115.658 138.067 116.071 138.676 116.436C139.187 116.752 139.698 117.093 140.234 117.36C140.745 117.628 141.305 117.798 141.962 118.065C141.256 118.698 140.575 119.281 139.893 119.889C139.917 119.938 139.942 120.011 139.942 120.059C140.623 120.011 141.305 119.962 141.962 119.865C147.025 119.184 151.821 117.603 156.275 114.904C157.906 113.931 159.342 112.715 160.365 110.964C161.509 108.97 161.752 106.806 160.876 104.569C160.608 103.888 160.121 103.304 159.659 102.55C162.385 103.766 164.211 105.857 165.403 108.63C166.596 111.426 166.839 114.32 165.841 117.433C166.742 117.36 167.545 117.36 168.3 117.19C171.44 116.485 173.704 114.418 175.335 111.499C176.674 109.067 177.453 106.392 177.793 103.572C178.158 100.532 179.278 97.9784 181.396 95.9843C183.976 93.5524 186.97 92.0204 190.159 90.8288C192.52 89.9533 194.906 89.2238 197.413 89.0049C197.973 88.9563 198.533 88.9563 199.117 88.932C199.141 88.859 199.19 88.8104 199.214 88.7374C198.679 88.3483 198.168 87.8863 197.583 87.5701C194.833 86.0381 191.912 85.9408 189.015 86.5731C186.313 87.181 183.684 88.1295 181.006 88.8104C179.424 89.2238 177.793 89.4183 176.187 89.6858C175.943 89.7345 175.7 89.6615 175.286 89.6129C181.98 83.7522 185.826 76.2621 186.897 67.0212C184.147 74.3896 179.424 79.4235 172.341 81.6122C167.326 83.1685 161.606 82.2444 158.636 80.6637C159.22 80.3962 159.732 80.1774 160.218 79.9342C163.797 78.2319 166.474 75.3867 168.689 71.9578C171.075 68.2371 172.56 64.0544 173.826 59.75C174.312 58.0964 174.751 56.4427 175.116 54.7405C174.288 55.8591 173.509 57.0021 172.633 58.0721C171.124 59.8959 169.639 61.7441 168.032 63.4707C164.673 67.0941 160.559 69.1855 155.983 70.3285C152.283 71.2283 148.924 72.8576 146.1 75.6542C144.567 77.1619 143.276 78.8642 142.205 80.7853C142.084 81.0042 141.962 81.1987 141.816 81.4419C140.282 75.3624 145.029 63.4464 155.204 61.6225C153.159 61.5253 151.115 61.355 149.07 61.355C144.031 61.3307 139.114 62.1089 134.294 63.6166C132.25 64.2489 130.278 65.0514 128.55 66.4375C126.31 68.2371 125.02 70.6203 125.19 73.7574C125.239 74.6814 125.58 75.5812 125.823 76.6512C125.069 76.2865 124.265 76.019 123.584 75.5569C120.59 73.4898 119.154 70.3771 118.667 66.6807C118.253 63.4221 118.862 60.3093 119.665 57.2209C119.981 56.0536 120.322 54.9107 120.565 53.6704C120.395 53.9136 120.225 54.1811 120.054 54.4243C116.208 60.2121 112.095 65.7323 107.713 71.0094C107.421 71.3498 107.104 71.6903 106.739 71.9578C105.985 72.4928 105.376 72.2253 105.084 71.2769C104.695 70.1096 104.378 68.918 103.891 67.8237C100.727 60.6741 95.6394 56.0536 88.6289 54.0109C86.0487 53.257 83.4441 52.6734 80.9125 51.7493C75.679 49.8525 71.6382 46.2047 68.6685 41.0979C68.5712 40.952 68.4981 40.7818 68.4008 40.6358C68.3764 40.6115 68.3277 40.5872 68.2547 40.5386C68.1087 41.7059 68.2791 42.8488 68.5955 43.9431C69.3258 46.4722 70.835 48.4177 72.6363 50.12C74.9487 52.3086 77.6507 53.6461 80.45 54.8864C82.9329 55.9807 85.4645 57.075 87.85 58.3882C91.696 60.5039 94.4466 63.7869 95.615 68.4073C96.1749 70.596 96.2966 72.7846 95.9071 74.9733C95.615 76.6999 94.7631 77.6483 93.1808 77.7212C91.8907 77.7699 90.5763 77.6483 89.2861 77.5267C85.5862 77.2105 81.9105 77.3078 78.4053 78.6696C74.681 80.1044 71.6139 82.4876 69.983 86.5245C68.3277 90.6342 68.6929 94.6711 71.4435 98.2702C72.8553 100.143 74.827 101.042 76.9204 101.456C84.6125 103.012 90.771 107.317 95.7611 113.907C96.8078 115.293 96.9538 116.825 97.0269 118.454C97.1729 121.251 96.5887 123.829 95.3716 126.261C95.1039 126.796 94.9091 127.379 94.5927 128.109C95.1769 128.036 95.615 128.011 96.0532 127.89C99.388 126.941 101.287 124.607 101.993 120.911C102.796 116.679 101.603 112.958 99.315 109.651C97.7815 107.438 95.9071 105.493 94.1789 103.45C93.8624 103.061 93.4973 102.696 93.0348 102.185C94.0328 102.064 94.9091 101.942 95.7611 101.845C98.317 101.577 100.849 101.529 103.331 102.404C105.522 103.182 107.372 104.544 108.662 106.709C109.466 108.046 109.831 109.53 109.758 111.135C109.733 111.621 109.733 112.107 109.685 112.594C109.393 114.953 110.074 117.02 111.364 118.892C115.405 124.68 120.736 127.574 127.284 127.744C127.43 127.744 127.576 127.72 127.722 127.72C127.771 127.72 127.819 127.671 127.941 127.598C127.527 127.258 127.138 126.966 126.773 126.674C124.095 124.558 121.466 122.37 119.397 119.5C117.62 116.995 116.403 114.247 116.184 111.062C115.819 106.271 117.742 102.866 121.49 100.702C123.584 99.4861 125.872 99.0727 128.258 99.1943C132.688 99.4618 136.802 100.945 140.526 103.645C142.765 105.274 144.567 107.341 145.711 110.065C145.93 110.6 146.125 111.183 146.246 111.767C146.538 113.08 146.271 114.247 145.321 115.123C144.664 115.755 143.982 116.363 143.277 116.898C143.057 117.068 142.644 117.093 142.352 116.995C141.11 116.606 140.161 115.755 139.479 114.588C138.895 113.615 138.384 112.594 137.946 111.548C136.753 108.727 135.025 106.563 132.177 105.809C130.594 105.395 128.963 105.444 127.454 106.028C126.773 106.295 126.067 106.879 125.677 107.535C124.996 108.654 124.485 109.943 124.022 111.208C123.584 112.423 123.852 113.664 124.558 114.709C125.239 115.755 126.042 116.679 126.821 117.628C127.552 118.503 128.379 119.305 129.085 120.181C131.276 122.832 132.274 125.92 132.104 129.422C132.104 129.544 132.104 129.641 132.104 129.762C132.104 129.811 132.128 129.86 132.128 129.908C132.177 129.933 132.25 129.957 132.298 130.006C132.59 129.252 132.956 128.546 133.15 127.768C133.783 125.385 133.588 123.075 132.469 120.862C131.958 119.865 131.373 118.916 130.813 117.944C130.059 116.63 129.426 115.269 129.329 113.688C129.304 113.323 129.353 112.934 129.377 112.569C129.426 112.569 129.499 112.545 129.548 112.545C129.645 112.788 129.742 113.007 129.84 113.25C130.911 116.047 132.031 118.819 133.734 121.227C135.511 123.756 137.678 125.653 140.55 126.431C140.672 126.455 140.794 126.504 140.915 126.504C140.988 126.528 141.086 126.528 141.183 126.479C138.871 125.191 137.24 123.026 135.39 121.178C134.173 119.962 133.199 118.576 132.444 116.995C131.787 115.609 131.081 114.247 130.375 112.885C129.913 111.986 129.84 111.062 130.083 110.089C130.327 109.213 130.521 108.314 130.716 107.438C130.813 106.976 131.008 106.733 131.471 106.903C132.615 107.341 133.759 107.73 134.854 108.289C136.023 108.873 136.656 110.016 137.045 111.329C137.727 113.469 138.871 115.196 140.575 116.509C140.648 116.558 140.696 116.63 140.769 116.703C140.136 116.825 139.504 116.582 138.919 115.95C138.554 115.56 138.262 115.098 137.897 114.685C137.24 113.931 136.436 113.469 135.463 113.542C134.465 113.615 133.929 114.272 134.002 115.366C134.148 117.044 134.732 118.576 135.633 120.157C135.341 119.062 135.098 118.09 134.952 117.093Z" fill="#F4E600"/>
<path d="M143.301 96.3004L1.2171 66.1943V188.953L143.301 244.229" fill="#444443"/>
<path d="M143.301 96.3004L1.2171 66.1943V188.953L143.301 244.229" stroke="#444443" stroke-miterlimit="10"/>
<path d="M328.372 58.9962L330.125 161.473L143.301 244.229V96.3004L328.372 58.9962Z" fill="#444443" stroke="#444443" stroke-miterlimit="10"/>
<path d="M328.372 58.9962L131.568 42.557L5.33087 24.2454L186.264 33.7295L328.372 58.9962Z" fill="#191919" stroke="#191919" stroke-miterlimit="10"/>
<path d="M328.372 58.1937V53.8407L131.617 33.7295L5.33087 16.6824L187.457 28.3308L328.372 53.8407" fill="#4D4C4B"/>
<path d="M328.372 58.1937V53.8407L131.617 33.7295L5.33087 16.6824L187.457 28.3308L328.372 53.8407" stroke="#4D4C4B" stroke-miterlimit="10"/>
<path d="M328.372 53.8407V58.9962L131.568 42.557L5.33087 24.2454V16.6824L131.617 33.7295L328.372 53.8407Z" fill="#4D4C4B" stroke="#4D4C4B" stroke-miterlimit="10"/>
<path d="M323.674 82.1472L238.332 169.182L318.879 71.7147L323.674 82.1472Z" fill="#90A492" stroke="#90A492" stroke-miterlimit="10"/>
<path d="M315.788 177.791L238.332 169.182L318.149 170.69L315.788 177.791Z" fill="#90A492" stroke="#90A492" stroke-miterlimit="10"/>
<path d="M264.475 232.434L239.281 170.252L270.195 231.899L264.475 232.434Z" fill="#90A492" stroke="#90A492" stroke-miterlimit="10"/>
<path d="M187.628 256.582L238.332 169.182L197.681 259.16L187.628 256.582Z" fill="#90A492" stroke="#90A492" stroke-miterlimit="10"/>
<path d="M152.453 151.941L239.281 170.252L148.437 159.868L152.453 151.941Z" fill="#90A492" stroke="#90A492" stroke-miterlimit="10"/>
<path d="M189.477 85.3815L238.332 169.182L180.349 87.7404L189.477 85.3815Z" fill="#90A492" stroke="#90A492" stroke-miterlimit="10"/>
<path d="M148.636 207.238L238.332 169.182L148.636 220.689V207.238Z" fill="#90A492" stroke="#90A492" stroke-miterlimit="10"/>
<path d="M273.627 48.8311L238.332 169.182L264.791 42.1193L273.627 48.8311Z" fill="#90A492" stroke="#90A492" stroke-miterlimit="10"/>
<path d="M133.856 191.361C133.856 263.245 192.472 289.85 253.959 256.606C306.051 228.446 342.783 165.462 342.783 112.302C342.783 59.1178 306.051 23.9535 253.959 35.2372C192.472 48.515 133.856 119.451 133.856 191.361ZM146.733 186.497C146.733 123.464 198.119 61.2334 252.036 49.585C297.726 39.7118 329.93 70.5474 329.93 117.165C329.93 163.784 297.726 219.01 252.036 243.693C198.119 272.851 146.733 249.53 146.733 186.497Z" fill="#0F0E09" stroke="#0F0E09" stroke-miterlimit="10"/>
</svg>
